<svg width="752" height="527" viewBox="0 0 752 527" fill="none" xmlns="http://www.w3.org/2000/svg">
<g clip-path="url(#clip0_498_405)">
<path d="M579.885 525.247L579.9 524.55C580.216 512.862 583.073 501.383 588.273 490.91C593.473 480.438 600.891 471.223 610.012 463.907C615.161 459.844 620.801 456.445 626.798 453.792L627.37 453.537L627.468 454.155C628.629 461.535 630.469 469.068 631.326 472.411L637.07 449.997L637.708 449.813C640.635 448.953 643.752 448.99 646.658 449.919C649.564 450.847 652.125 452.624 654.011 455.021C655.98 457.419 657.185 460.351 657.473 463.44C657.76 466.529 657.116 469.634 655.623 472.353C654.284 474.848 652.968 477.451 651.695 479.967C647.321 488.617 642.798 497.561 636.208 504.509C631.167 509.72 625.027 513.739 618.235 516.272C611.442 518.806 604.17 519.791 596.948 519.154L579.885 525.247Z" fill="#F2F2F2"/>
<path d="M405.248 320.566H256.967C251.634 320.56 246.521 318.439 242.75 314.668C238.979 310.897 236.858 305.784 236.852 300.451V91.8522C236.879 67.5 246.565 44.153 263.785 26.9333C281.004 9.71367 304.351 0.0275554 328.703 0H405.249C410.581 0.00602138 415.694 2.12718 419.465 5.89813C423.236 9.66908 425.357 14.7819 425.363 20.1148V300.451C425.357 305.784 423.236 310.897 419.465 314.668C415.694 318.439 410.581 320.56 405.248 320.566V320.566Z" fill="#F2F2F2"/>
<path d="M262.152 181.284C259.906 181.286 257.752 182.18 256.164 183.768C254.576 185.356 253.682 187.51 253.68 189.756V237.369C253.682 239.615 254.576 241.768 256.164 243.356C257.752 244.945 259.906 245.838 262.152 245.841H406.254C408.5 245.838 410.653 244.945 412.241 243.356C413.83 241.768 414.723 239.615 414.726 237.369V189.756C414.723 187.51 413.83 185.356 412.241 183.768C410.653 182.18 408.5 181.286 406.254 181.284L262.152 181.284Z" fill="white"/>
<path d="M406.6 150.394H262.498C260.068 150.391 257.738 149.424 256.02 147.706C254.301 145.988 253.335 143.658 253.332 141.228C253.349 126.174 259.337 111.742 269.981 101.097C280.626 90.4528 295.058 84.4653 310.111 84.4482H406.6C409.03 84.4509 411.36 85.4175 413.079 87.1359C414.797 88.8543 415.764 91.1842 415.766 93.6144V141.227C415.764 143.658 414.797 145.987 413.078 147.706C411.36 149.424 409.03 150.391 406.6 150.394V150.394Z" fill="white"/>
<path d="M468.642 238.536H302.758C301.783 238.535 300.848 238.148 300.158 237.458C299.469 236.769 299.081 235.834 299.08 234.859V191.151C299.081 190.176 299.469 189.241 300.158 188.551C300.848 187.862 301.783 187.474 302.758 187.473H468.642C469.617 187.474 470.552 187.862 471.241 188.551C471.931 189.241 472.318 190.176 472.32 191.151V234.859C472.318 235.834 471.931 236.769 471.241 237.458C470.552 238.148 469.617 238.535 468.642 238.536V238.536Z" fill="white"/>
<path d="M468.642 239.23H302.757C301.598 239.229 300.487 238.768 299.668 237.949C298.848 237.129 298.387 236.018 298.386 234.859V191.151C298.387 189.991 298.848 188.88 299.668 188.061C300.487 187.241 301.598 186.78 302.757 186.779H468.642C469.801 186.78 470.912 187.241 471.732 188.061C472.551 188.88 473.012 189.991 473.014 191.151V234.859C473.012 236.018 472.551 237.129 471.732 237.949C470.912 238.768 469.801 239.229 468.642 239.23V239.23ZM302.757 188.167C301.966 188.168 301.208 188.483 300.649 189.042C300.09 189.601 299.775 190.36 299.774 191.151V234.859C299.775 235.65 300.09 236.408 300.649 236.967C301.208 237.527 301.966 237.841 302.757 237.842H468.642C469.433 237.841 470.191 237.527 470.75 236.967C471.31 236.408 471.624 235.65 471.625 234.859V191.151C471.624 190.36 471.31 189.601 470.75 189.042C470.191 188.483 469.433 188.168 468.642 188.167H302.757Z" fill="#CCCCCC"/>
<path d="M316.863 208.19C320.159 208.19 322.831 205.519 322.831 202.223C322.831 198.927 320.159 196.255 316.863 196.255C313.567 196.255 310.896 198.927 310.896 202.223C310.896 205.519 313.567 208.19 316.863 208.19Z" fill="#E6E6E6"/>
<path d="M458.726 217.261H312.673C312.439 217.262 312.208 217.216 311.992 217.127C311.775 217.038 311.579 216.907 311.414 216.742C311.248 216.577 311.117 216.381 311.027 216.165C310.938 215.949 310.892 215.718 310.892 215.484C310.892 215.25 310.938 215.019 311.027 214.803C311.117 214.587 311.248 214.391 311.414 214.226C311.579 214.061 311.775 213.93 311.992 213.841C312.208 213.752 312.439 213.706 312.673 213.707H458.726C458.96 213.706 459.192 213.752 459.408 213.841C459.624 213.93 459.82 214.061 459.986 214.226C460.151 214.391 460.282 214.587 460.372 214.803C460.461 215.019 460.508 215.25 460.508 215.484C460.508 215.718 460.461 215.949 460.372 216.165C460.282 216.381 460.151 216.577 459.986 216.742C459.82 216.907 459.624 217.038 459.408 217.127C459.192 217.216 458.96 217.262 458.726 217.261H458.726Z" fill="#E6E6E6"/>
<path d="M444.214 224.283H312.673C312.201 224.283 311.749 224.096 311.416 223.763C311.083 223.43 310.896 222.977 310.896 222.506C310.896 222.035 311.083 221.583 311.416 221.25C311.749 220.916 312.201 220.729 312.673 220.729H444.214C444.685 220.729 445.137 220.916 445.471 221.25C445.804 221.583 445.991 222.035 445.991 222.506C445.991 222.977 445.804 223.43 445.471 223.763C445.137 224.096 444.685 224.283 444.214 224.283V224.283Z" fill="#E6E6E6"/>
<path d="M296.307 523.611L255.705 507.427C254.8 507.065 254.075 506.359 253.69 505.463C253.305 504.568 253.291 503.556 253.651 502.65L315.071 348.555C315.433 347.65 316.139 346.925 317.035 346.54C317.931 346.155 318.943 346.14 319.849 346.5L360.451 362.684C361.356 363.046 362.081 363.752 362.466 364.648C362.851 365.544 362.865 366.555 362.505 367.462L301.085 521.556C300.723 522.461 300.017 523.186 299.121 523.571C298.225 523.957 297.213 523.971 296.307 523.611V523.611Z" fill="white"/>
<path d="M296.05 524.256L255.448 508.072C254.372 507.642 253.51 506.802 253.052 505.738C252.594 504.673 252.578 503.47 253.006 502.393L314.426 348.298C314.856 347.222 315.696 346.36 316.761 345.902C317.825 345.444 319.028 345.428 320.105 345.856L360.707 362.039C361.783 362.469 362.645 363.309 363.103 364.374C363.561 365.439 363.578 366.642 363.15 367.719L301.729 521.813C301.299 522.89 300.459 523.751 299.395 524.209C298.33 524.667 297.127 524.684 296.05 524.256V524.256ZM254.295 502.907C254.003 503.642 254.015 504.463 254.327 505.189C254.64 505.916 255.228 506.489 255.962 506.783L296.564 522.966C297.299 523.258 298.12 523.247 298.846 522.934C299.573 522.622 300.146 522.034 300.44 521.299L361.86 367.205C362.152 366.47 362.14 365.649 361.828 364.922C361.515 364.195 360.928 363.622 360.193 363.329L319.591 347.145C318.856 346.853 318.035 346.865 317.309 347.177C316.582 347.49 316.009 348.078 315.715 348.812L254.295 502.907Z" fill="#CCCCCC"/>
<path d="M323.55 373.087C326.846 373.087 329.517 370.415 329.517 367.119C329.517 363.823 326.846 361.151 323.55 361.151C320.254 361.151 317.582 363.823 317.582 367.119C317.582 370.415 320.254 373.087 323.55 373.087Z" fill="#E6E6E6"/>
<path d="M282.684 505.46C282.246 505.285 281.896 504.944 281.71 504.511C281.524 504.078 281.517 503.589 281.691 503.152L335.769 367.478C335.855 367.262 335.983 367.064 336.146 366.897C336.309 366.73 336.503 366.596 336.718 366.504C336.932 366.412 337.162 366.363 337.396 366.36C337.629 366.356 337.861 366.399 338.078 366.486C338.294 366.572 338.492 366.7 338.659 366.863C338.826 367.026 338.96 367.22 339.052 367.434C339.144 367.649 339.193 367.879 339.196 368.113C339.2 368.346 339.157 368.578 339.07 368.794L284.993 504.468C284.818 504.905 284.476 505.255 284.044 505.441C283.611 505.628 283.122 505.634 282.684 505.46V505.46Z" fill="#E6E6E6"/>
<path d="M294.58 494.58C294.143 494.405 293.793 494.063 293.607 493.63C293.421 493.198 293.414 492.709 293.588 492.271L342.292 370.078C342.378 369.861 342.506 369.663 342.669 369.495C342.832 369.328 343.026 369.194 343.24 369.101C343.455 369.009 343.686 368.959 343.919 368.956C344.153 368.953 344.385 368.996 344.602 369.082C344.819 369.169 345.017 369.297 345.184 369.46C345.352 369.623 345.485 369.818 345.577 370.033C345.669 370.247 345.718 370.478 345.721 370.712C345.724 370.946 345.681 371.177 345.594 371.394L296.889 493.587C296.714 494.024 296.373 494.374 295.94 494.561C295.507 494.747 295.018 494.754 294.58 494.58V494.58Z" fill="#E6E6E6"/>
<path d="M396.24 41.238C404.916 41.238 411.949 34.2049 411.949 25.5292C411.949 16.8534 404.916 9.82031 396.24 9.82031C387.564 9.82031 380.531 16.8534 380.531 25.5292C380.531 34.2049 387.564 41.238 396.24 41.238Z" fill="white"/>
<path d="M403.975 24.9076H396.909V17.8415C396.909 17.7535 396.892 17.6663 396.858 17.5849C396.825 17.5035 396.776 17.4295 396.714 17.3671C396.652 17.3048 396.578 17.2553 396.496 17.2215C396.415 17.1878 396.328 17.1704 396.24 17.1704C396.152 17.1704 396.065 17.1878 395.984 17.2215C395.902 17.2553 395.829 17.3048 395.766 17.3671C395.704 17.4295 395.655 17.5035 395.622 17.5849C395.588 17.6663 395.571 17.7535 395.572 17.8415V24.9076H388.505C388.328 24.9076 388.158 24.978 388.033 25.1034C387.907 25.2288 387.837 25.3988 387.837 25.5761C387.837 25.7534 387.907 25.9234 388.033 26.0488C388.158 26.1741 388.328 26.2446 388.505 26.2446H395.572V33.3109C395.571 33.3989 395.588 33.4861 395.622 33.5675C395.655 33.6489 395.704 33.7229 395.766 33.7852C395.829 33.8476 395.902 33.897 395.984 33.9308C396.065 33.9646 396.152 33.9819 396.24 33.9819C396.328 33.9819 396.415 33.9646 396.496 33.9308C396.578 33.897 396.652 33.8476 396.714 33.7852C396.776 33.7229 396.825 33.6489 396.858 33.5675C396.892 33.4861 396.909 33.3989 396.909 33.3109V26.2446H403.975C404.152 26.2446 404.322 26.1741 404.447 26.0488C404.573 25.9234 404.643 25.7534 404.643 25.5761C404.643 25.3988 404.573 25.2288 404.447 25.1034C404.322 24.978 404.152 24.9076 403.975 24.9076Z" fill="#E6E6E6"/>
<path d="M589.818 38.4727H536.818C533.371 38.4727 530.064 37.103 527.626 34.6651C525.188 32.2271 523.818 28.9205 523.818 25.4727C523.818 22.0248 525.188 18.7182 527.626 16.2803C530.064 13.8423 533.371 12.4727 536.818 12.4727H589.818C593.266 12.4727 596.573 13.8423 599.011 16.2803C601.449 18.7182 602.818 22.0248 602.818 25.4727C602.818 28.9205 601.449 32.2271 599.011 34.6651C596.573 37.103 593.266 38.4727 589.818 38.4727V38.4727Z" fill="#FFD600"/>
<path d="M408.727 20.1192L408.698 22.1191L511.117 23.5986L511.146 21.5987L408.727 20.1192Z" fill="#3F3D56"/>
<path d="M404.429 26.5441C403.198 26.5469 402.009 26.0966 401.09 25.2791C400.17 24.4616 399.583 23.3341 399.441 22.1116C399.3 20.8892 399.613 19.6574 400.322 18.6513C401.03 17.6451 402.085 16.935 403.283 16.6564C404.482 16.3778 405.741 16.5502 406.821 17.1408C407.9 17.7313 408.725 18.6987 409.137 19.8583C409.549 21.0178 409.52 22.2885 409.055 23.4279C408.59 24.5673 407.721 25.4956 406.616 26.0358C405.935 26.3686 405.187 26.5424 404.429 26.5441V26.5441ZM404.422 18.5396C403.77 18.5396 403.136 18.7518 402.615 19.1441C402.094 19.5364 401.716 20.0875 401.536 20.7141C401.356 21.3407 401.385 22.0088 401.619 22.6175C401.852 23.2261 402.277 23.7422 402.83 24.0878C403.383 24.4333 404.033 24.5896 404.683 24.5329C405.332 24.4762 405.946 24.2097 406.43 23.7736C406.915 23.3375 407.244 22.7555 407.369 22.1156C407.493 21.4757 407.406 20.8127 407.121 20.2266V20.2262C406.873 19.7208 406.49 19.2948 406.013 18.9967C405.535 18.6986 404.984 18.5403 404.422 18.5397V18.5396Z" fill="#3F3D56"/>
<path d="M97.5928 55.4727C97.5966 52.026 98.9675 48.7216 101.405 46.2845C103.842 43.8473 107.146 42.4765 110.593 42.4727H163.593C167.041 42.4727 170.347 43.8423 172.785 46.2803C175.223 48.7182 176.593 52.0248 176.593 55.4727C176.593 58.9205 175.223 62.2271 172.785 64.6651C170.347 67.103 167.041 68.4727 163.593 68.4727H110.593C107.146 68.4688 103.842 67.098 101.405 64.6608C98.9675 62.2237 97.5966 58.9193 97.5928 55.4727V55.4727Z" fill="#FFD600"/>
<path d="M291.685 50.122L189.266 51.6011L189.295 53.6011L291.714 52.122L291.685 50.122Z" fill="#3F3D56"/>
<path d="M293.796 56.0358C292.701 55.4984 291.842 54.577 291.383 53.4472C290.924 52.3175 290.896 51.0582 291.306 49.9095C291.715 48.7607 292.533 47.8027 293.603 47.218C294.673 46.6333 295.921 46.4627 297.109 46.7388C298.297 47.0149 299.342 47.7183 300.044 48.7151C300.747 49.7119 301.059 50.9323 300.919 52.1438C300.78 53.3554 300.2 54.4734 299.29 55.2849C298.379 56.0964 297.202 56.5446 295.983 56.5441C295.225 56.5438 294.477 56.3699 293.796 56.0358V56.0358ZM295.01 48.7047C294.637 48.8321 294.293 49.0321 293.998 49.2933C293.703 49.5544 293.463 49.8715 293.291 50.2262V50.2267C292.985 50.852 292.906 51.5639 293.067 52.241C293.228 52.9181 293.618 53.5185 294.172 53.9398C294.726 54.3611 295.409 54.5772 296.104 54.5514C296.8 54.5255 297.465 54.2593 297.986 53.798C298.507 53.3367 298.852 52.709 298.962 52.0218C299.072 51.3347 298.94 50.6306 298.589 50.0298C298.238 49.4289 297.689 48.9684 297.037 48.7267C296.384 48.4851 295.668 48.4773 295.01 48.7047V48.7047Z" fill="#3F3D56"/>
<path d="M93.5928 448.473C93.5966 445.026 94.9675 441.722 97.4046 439.284C99.8417 436.847 103.146 435.476 106.593 435.473H159.593C163.041 435.473 166.347 436.842 168.785 439.28C171.223 441.718 172.593 445.025 172.593 448.473C172.593 451.92 171.223 455.227 168.785 457.665C166.347 460.103 163.041 461.473 159.593 461.473H106.593C103.146 461.469 99.8417 460.098 97.4046 457.661C94.9675 455.224 93.5966 451.919 93.5928 448.473V448.473Z" fill="#FFD600"/>
<path d="M287.683 443.123L185.264 444.603L185.293 446.603L287.712 445.123L287.683 443.123Z" fill="#3F3D56"/>
<path d="M289.796 449.036C288.701 448.498 287.842 447.577 287.383 446.447C286.924 445.317 286.896 444.058 287.306 442.909C287.715 441.761 288.533 440.803 289.603 440.218C290.673 439.633 291.921 439.463 293.109 439.739C294.297 440.015 295.342 440.718 296.044 441.715C296.747 442.712 297.059 443.932 296.919 445.144C296.78 446.355 296.2 447.473 295.29 448.285C294.379 449.096 293.202 449.545 291.983 449.544C291.225 449.544 290.476 449.37 289.796 449.036V449.036ZM291.01 441.705C290.637 441.832 290.293 442.032 289.998 442.293C289.703 442.554 289.463 442.872 289.291 443.226V443.227C288.985 443.852 288.906 444.564 289.067 445.241C289.228 445.918 289.618 446.518 290.172 446.94C290.726 447.361 291.409 447.577 292.104 447.551C292.8 447.526 293.465 447.259 293.986 446.798C294.507 446.337 294.852 445.709 294.962 445.022C295.072 444.335 294.94 443.631 294.589 443.03C294.238 442.429 293.689 441.968 293.037 441.727C292.384 441.485 291.668 441.477 291.01 441.705V441.705Z" fill="#3F3D56"/>
<path d="M107.593 200.473C107.597 197.026 108.967 193.722 111.405 191.284C113.842 188.847 117.146 187.476 120.593 187.473H173.593C177.041 187.473 180.347 188.842 182.785 191.28C185.223 193.718 186.593 197.025 186.593 200.473C186.593 203.92 185.223 207.227 182.785 209.665C180.347 212.103 177.041 213.473 173.593 213.473H120.593C117.146 213.469 113.842 212.098 111.405 209.661C108.967 207.224 107.597 203.919 107.593 200.473V200.473Z" fill="#FFD600"/>
<path d="M301.684 195.122L199.265 196.602L199.294 198.602L301.713 197.122L301.684 195.122Z" fill="#3F3D56"/>
<path d="M303.796 201.036C302.701 200.498 301.842 199.577 301.383 198.447C300.924 197.317 300.896 196.058 301.306 194.909C301.715 193.761 302.533 192.803 303.603 192.218C304.673 191.633 305.921 191.463 307.109 191.739C308.297 192.015 309.342 192.718 310.044 193.715C310.747 194.712 311.059 195.932 310.919 197.144C310.78 198.355 310.2 199.473 309.29 200.285C308.379 201.096 307.202 201.545 305.983 201.544C305.225 201.544 304.477 201.37 303.796 201.036V201.036ZM305.01 193.705C304.637 193.832 304.293 194.032 303.998 194.293C303.703 194.554 303.463 194.872 303.291 195.226V195.227C302.985 195.852 302.906 196.564 303.067 197.241C303.228 197.918 303.618 198.518 304.172 198.94C304.726 199.361 305.409 199.577 306.104 199.551C306.8 199.526 307.465 199.259 307.986 198.798C308.507 198.337 308.852 197.709 308.962 197.022C309.072 196.335 308.94 195.631 308.589 195.03C308.238 194.429 307.689 193.968 307.037 193.727C306.384 193.485 305.668 193.477 305.01 193.705V193.705Z" fill="#3F3D56"/>
<path d="M575.818 121.473H522.818C519.371 121.473 516.064 120.103 513.626 117.665C511.188 115.227 509.818 111.92 509.818 108.473C509.818 105.025 511.188 101.718 513.626 99.2803C516.064 96.8423 519.371 95.4727 522.818 95.4727H575.818C579.266 95.4727 582.573 96.8423 585.011 99.2803C587.449 101.718 588.818 105.025 588.818 108.473C588.818 111.92 587.449 115.227 585.011 117.665C582.573 120.103 579.266 121.473 575.818 121.473V121.473Z" fill="#FFD600"/>
<path d="M394.727 103.119L394.698 105.119L497.117 106.599L497.146 104.599L394.727 103.119Z" fill="#3F3D56"/>
<path d="M390.429 109.544C389.198 109.547 388.009 109.097 387.09 108.279C386.17 107.462 385.583 106.334 385.441 105.112C385.3 103.889 385.613 102.657 386.322 101.651C387.03 100.645 388.085 99.935 389.283 99.6564C390.482 99.3778 391.741 99.5502 392.821 100.141C393.9 100.731 394.725 101.699 395.137 102.858C395.549 104.018 395.52 105.289 395.055 106.428C394.59 107.567 393.721 108.496 392.616 109.036C391.935 109.369 391.187 109.542 390.429 109.544V109.544ZM390.422 101.54C389.77 101.54 389.136 101.752 388.615 102.144C388.094 102.536 387.716 103.087 387.536 103.714C387.356 104.341 387.385 105.009 387.619 105.617C387.852 106.226 388.277 106.742 388.83 107.088C389.383 107.433 390.033 107.59 390.683 107.533C391.332 107.476 391.946 107.21 392.43 106.774C392.915 106.337 393.244 105.755 393.369 105.116C393.493 104.476 393.406 103.813 393.121 103.227V103.226C392.873 102.721 392.49 102.295 392.013 101.997C391.535 101.699 390.984 101.54 390.422 101.54V101.54Z" fill="#3F3D56"/>
<path d="M604.163 269.548L588.769 270.231C585.3 279.664 587.757 302.566 587.757 302.566L579.67 340.2C578.823 341.043 578.213 342.094 577.902 343.248C577.591 344.402 577.589 345.617 577.896 346.772C578.204 347.927 578.811 348.98 579.655 349.826C580.499 350.672 581.551 351.281 582.705 351.591C583.86 351.901 585.075 351.901 586.229 351.592C587.384 351.283 588.437 350.675 589.281 349.83C590.126 348.985 590.734 347.932 591.042 346.777C591.351 345.623 591.35 344.407 591.039 343.253L607.463 298.126L604.163 269.548Z" fill="#9E616A"/>
<path d="M593.921 228.387C596.309 228.309 598.685 228.757 600.88 229.701C603.074 230.645 605.034 232.061 606.619 233.848C608.205 235.635 609.376 237.75 610.052 240.042C610.727 242.334 610.888 244.746 610.525 247.107L609.046 256.723C609.046 256.723 613.276 289.457 608.119 298.366L598.284 324.999L582.238 324.178L586.674 295.095C586.674 295.095 587.794 280.7 583.699 274.611C581.191 270.882 578.642 256.847 578.206 245.122C578.137 242.99 578.488 240.866 579.241 238.871C579.994 236.876 581.133 235.049 582.593 233.495C584.052 231.94 585.804 230.689 587.748 229.813C589.692 228.936 591.79 228.452 593.921 228.387V228.387Z" fill="#3F3D56"/>
<path d="M582.798 514.593L572.803 514.592L568.047 476.036H582.801L582.798 514.593Z" fill="#9E616A"/>
<path d="M583.151 525.02L552.412 525.019V524.63C552.412 521.457 553.673 518.414 555.917 516.17C558.16 513.927 561.203 512.666 564.377 512.666H564.377L569.992 508.406L580.468 512.667L583.151 512.667L583.151 525.02Z" fill="#2F2E41"/>
<path d="M546.681 514.593L536.686 514.592L531.93 476.036H546.684L546.681 514.593Z" fill="#9E616A"/>
<path d="M547.034 525.02L516.295 525.019V524.63C516.295 521.457 517.556 518.414 519.799 516.17C522.043 513.927 525.086 512.666 528.259 512.666H528.26L533.875 508.406L544.351 512.667L547.034 512.667L547.034 525.02Z" fill="#2F2E41"/>
<path d="M510.385 409.522C516.321 428.433 518.6 443.27 523.125 461.995C524.911 465.283 532.602 492.599 532.602 492.599C532.602 492.599 544.128 493.864 548.205 490.638C552.282 487.412 548.081 471.447 548.081 471.447C550.769 459.377 544.144 440.359 543.752 428.658C544.567 423.747 540.245 419.531 539.849 414.847C542.707 412.673 556.608 378.55 559.442 369.015C557.985 398.068 570.766 464.405 564.032 486.442C560.12 499.246 569.214 496.4 582.681 497.019C588.685 495.235 586.243 484.957 586.243 484.957C586.243 484.957 590.32 478.169 590.32 475.536C593.239 463.218 596.747 436.423 595.789 430.402C596.228 424.011 596.445 360.156 601.327 337.789C604.58 319.973 564.708 316.051 553.242 311.802C534.108 302.584 537.337 315.69 527.26 327.763C517.544 348.574 511.821 385.737 510.385 409.522Z" fill="#2F2E41"/>
<path d="M555.051 222.225L566.675 209.137L585.042 211.178L596.801 227.635C609.798 230.626 612.195 241.252 609.913 254.391C605.349 280.668 594.085 299.035 599.205 312C606.978 331.681 603.209 346.825 584.603 344.066C565.996 341.307 523.12 323.086 535.205 311C547.291 298.914 536.485 292.579 536.485 292.579L544.97 246.375C542.797 234.592 543.133 223.459 555.051 222.225V222.225Z" fill="#FFD600"/>
<path d="M556.544 263.704L541.895 258.926C535.328 266.535 529.568 288.836 529.568 288.836L508.754 321.216C507.664 321.707 506.724 322.477 506.026 323.447C505.328 324.418 504.899 325.555 504.781 326.744C504.662 327.933 504.859 329.133 505.352 330.222C505.844 331.311 506.615 332.251 507.586 332.947C508.557 333.643 509.695 334.071 510.884 334.188C512.074 334.305 513.273 334.107 514.361 333.613C515.449 333.119 516.388 332.348 517.084 331.375C517.779 330.403 518.206 329.265 518.321 328.076L549.576 291.615L556.544 263.704Z" fill="#9E616A"/>
<path d="M561.445 221.573C563.707 222.34 565.773 223.596 567.495 225.251C569.217 226.907 570.553 228.922 571.408 231.153C572.263 233.384 572.616 235.776 572.441 238.159C572.267 240.541 571.569 242.856 570.398 244.939L565.63 253.419C565.63 253.419 558.068 285.548 550.106 292.072L531.528 313.539L516.797 307.124L531.185 281.463C531.185 281.463 537.298 268.383 535.608 261.242C534.574 256.869 537.127 242.835 540.845 231.706C541.53 229.687 542.607 227.823 544.014 226.22C545.421 224.617 547.13 223.308 549.043 222.367C550.956 221.426 553.037 220.871 555.165 220.735C557.293 220.599 559.427 220.883 561.445 221.573V221.573Z" fill="#3F3D56"/>
<path d="M580.318 206.346C590.804 206.346 599.305 197.846 599.305 187.36C599.305 176.874 590.804 168.374 580.318 168.374C569.833 168.374 561.332 176.874 561.332 187.36C561.332 197.846 569.833 206.346 580.318 206.346Z" fill="#A0616A"/>
<path d="M563.789 170.276C564.073 168.699 564.708 167.206 565.647 165.907C566.12 165.345 566.707 164.889 567.368 164.568C568.03 164.248 568.752 164.071 569.486 164.049C570.221 164.026 570.952 164.159 571.632 164.439C572.312 164.718 572.925 165.138 573.431 165.671C573.134 164.808 573.048 163.886 573.179 162.983C574.566 163.648 576.049 164.089 577.574 164.29L574.205 160.772C581.127 157.697 586.846 157.863 590.976 162.313C592.158 163.587 594.579 162.698 595.85 164.012C597.121 165.327 597.191 168.134 595.585 168.867C598.75 167.675 602.386 169.406 604.474 172.305C606.563 175.204 607.332 179.028 607.473 182.738C607.656 187.549 606.759 192.671 603.823 196.213C601.903 198.529 599.284 199.973 597.159 202.057L597.096 202.119C594.768 204.506 591.851 206.235 588.639 207.13C585.427 208.024 582.036 208.053 578.81 207.213C578.447 207.114 578.088 207.003 577.726 206.9C575.919 207.717 573.668 206.6 572.527 204.782C571.31 202.844 571.07 200.364 571.019 198.002C570.951 194.913 571.142 191.824 571.588 188.766C572.091 185.323 572.544 180.913 569.817 179.184C567.694 177.837 565.056 179.166 562.919 180.485C562.714 177.058 563.007 173.619 563.789 170.276V170.276Z" fill="#2F2E41"/>
<path d="M749.941 526.604L1.19115 526.911C0.875955 526.91 0.573992 526.785 0.35144 526.561C0.128889 526.338 0.00390625 526.036 0.00390625 525.721C0.00390625 525.405 0.128889 525.103 0.35144 524.88C0.573992 524.657 0.875955 524.531 1.19115 524.53L749.941 524.223C750.257 524.223 750.56 524.348 750.783 524.571C751.006 524.795 751.132 525.098 751.132 525.413C751.132 525.729 751.006 526.032 750.783 526.255C750.56 526.479 750.257 526.604 749.941 526.604V526.604Z" fill="#CACACA"/>
</g>
<defs>
<clipPath id="clip0_498_405">
<rect width="751.131" height="526.911" fill="white"/>
</clipPath>
</defs>
</svg>
