<svg width="121" height="133" viewBox="0 0 121 133" fill="none" xmlns="http://www.w3.org/2000/svg">
<g clip-path="url(#clip0_403_73)">
<g filter="url(#filter0_d_403_73)">
<path d="M10.446 30.9861L54.446 5.24874C57.8768 3.24196 62.1232 3.24196 65.554 5.24874L109.554 30.9861C112.927 32.9591 115 36.5734 115 40.481V91.1449C115 94.916 113.068 98.4243 109.881 100.441L65.8813 128.279C62.2897 130.551 57.7103 130.551 54.1187 128.279L10.1187 100.441C6.93184 98.4243 5 94.916 5 91.1449V40.481C5 36.5734 7.07307 32.9591 10.446 30.9861Z" fill="white"/>
<path d="M10.446 30.9861L54.446 5.24874C57.8768 3.24196 62.1232 3.24196 65.554 5.24874L109.554 30.9861C112.927 32.9591 115 36.5734 115 40.481V91.1449C115 94.916 113.068 98.4243 109.881 100.441L65.8813 128.279C62.2897 130.551 57.7103 130.551 54.1187 128.279L10.1187 100.441C6.93184 98.4243 5 94.916 5 91.1449V40.481C5 36.5734 7.07307 32.9591 10.446 30.9861Z" stroke="black" stroke-width="3"/>
</g>
<path d="M43.492 30.0159L58.9682 24.8572L72.3809 26.9207L81.6666 34.1429L86.8254 45.4921L84.7619 62L74.4444 76.4445L72.3809 84.6984H46.5873V78.508L41.4285 69.2223L33.1746 58.9048V45.4921L43.492 30.0159Z" fill="#FFE665"/>
<path d="M44.5237 95.0159L75.4761 95.0159" stroke="black" stroke-width="3"/>
<path d="M44.5237 103.27L75.4761 103.27" stroke="black" stroke-width="3"/>
<ellipse cx="65.9354" cy="40.7936" rx="2.16953" ry="2.12699" fill="black"/>
<ellipse cx="65.9356" cy="40.7937" rx="1.08476" ry="1.06349" fill="#E5E5E5"/>
<ellipse cx="58.3419" cy="49.3015" rx="2.16953" ry="2.12699" fill="black"/>
<ellipse cx="58.3418" cy="49.3018" rx="1.08476" ry="1.06349" fill="#E5E5E5"/>
<ellipse cx="61.596" cy="60.9999" rx="2.16953" ry="2.12699" fill="black"/>
<ellipse cx="61.5965" cy="60.9998" rx="1.08476" ry="1.06349" fill="#E5E5E5"/>
<ellipse cx="50.7484" cy="68.4445" rx="2.16953" ry="2.12699" fill="black"/>
<ellipse cx="50.7486" cy="68.4444" rx="1.08476" ry="1.06349" fill="#E5E5E5"/>
<path d="M34.2061 49.3014H48.308M55.6301 49.3014H48.308M48.308 49.3014V40.7935H61.5964M34.2061 56.7459H50.7487V60.9998M50.7487 65.2538V60.9998M50.7487 60.9998H58.3421" stroke="black"/>
<path d="M60.1611 24.8572C57.1423 24.8572 55.3654 25.2399 52.4308 25.9245C49.6186 26.5806 48.2457 27.6253 45.805 29.1265C42.4506 31.1896 40.572 32.54 38.0749 35.5304C35.8911 38.1454 34.8134 39.8323 33.6576 43.0017C32.0742 47.3437 31.7792 50.1995 32.5533 54.7422C33.1521 58.2562 34.2925 60.0607 35.8663 63.2808C37.3513 66.3194 38.4129 67.9194 40.2835 70.7521C42.2793 73.7745 45.805 78.2234 45.805 78.2234L46.9093 86.7619H73.4127" stroke="black" stroke-width="3"/>
<path d="M59.8389 24.8572C62.8577 24.8572 64.6346 25.2399 67.5692 25.9245C70.3814 26.5806 71.7543 27.6253 74.195 29.1265C77.5494 31.1896 79.428 32.54 81.9251 35.5304C84.1089 38.1454 85.1866 39.8323 86.3424 43.0017C87.9258 47.3437 88.2208 50.1995 87.4467 54.7422C86.8479 58.2562 85.7075 60.0607 84.1337 63.2808C82.6487 66.3194 81.5871 67.9194 79.7165 70.7521C77.7207 73.7745 74.195 78.2234 74.195 78.2234L73.0907 86.7619H46.5873" stroke="black" stroke-width="3"/>
</g>
<defs>
<filter id="filter0_d_403_73" x="-3.5" y="-1.75635" width="133" height="149.24" filterUnits="userSpaceOnUse" color-interpolation-filters="sRGB">
<feFlood flood-opacity="0" result="BackgroundImageFix"/>
<feColorMatrix in="SourceAlpha" type="matrix" values="0 0 0 0 0 0 0 0 0 0 0 0 0 0 0 0 0 0 127 0" result="hardAlpha"/>
<feOffset dx="3" dy="6"/>
<feGaussianBlur stdDeviation="5"/>
<feComposite in2="hardAlpha" operator="out"/>
<feColorMatrix type="matrix" values="0 0 0 0 0 0 0 0 0 0 0 0 0 0 0 0 0 0 0.25 0"/>
<feBlend mode="normal" in2="BackgroundImageFix" result="effect1_dropShadow_403_73"/>
<feBlend mode="normal" in="SourceGraphic" in2="effect1_dropShadow_403_73" result="shape"/>
</filter>
<clipPath id="clip0_403_73">
<rect width="121" height="133" fill="white"/>
</clipPath>
</defs>
</svg>
