<svg width="968" height="611" viewBox="0 0 968 611" fill="none" xmlns="http://www.w3.org/2000/svg">
<g filter="url(#filter0_bd_411_46)">
<rect x="6" y="4" width="952" height="595" rx="25" fill="url(#paint0_linear_411_46)" shape-rendering="crispEdges"/>
</g>
<circle cx="31" cy="24" r="6" fill="#FF3232"/>
<circle cx="48" cy="24" r="6" fill="#FFE665"/>
<circle cx="65" cy="24" r="6" fill="#42FF00"/>
<path d="M234.469 343.609V335.547C234.469 334.943 234.359 334.422 234.141 333.984C233.922 333.547 233.589 333.208 233.141 332.969C232.703 332.729 232.151 332.609 231.484 332.609C230.87 332.609 230.339 332.714 229.891 332.922C229.443 333.13 229.094 333.411 228.844 333.766C228.594 334.12 228.469 334.521 228.469 334.969H224.719C224.719 334.302 224.88 333.656 225.203 333.031C225.526 332.406 225.995 331.849 226.609 331.359C227.224 330.87 227.958 330.484 228.812 330.203C229.667 329.922 230.625 329.781 231.688 329.781C232.958 329.781 234.083 329.995 235.062 330.422C236.052 330.849 236.828 331.495 237.391 332.359C237.964 333.214 238.25 334.286 238.25 335.578V343.094C238.25 343.865 238.302 344.557 238.406 345.172C238.521 345.776 238.682 346.302 238.891 346.75V347H235.031C234.854 346.594 234.714 346.078 234.609 345.453C234.516 344.818 234.469 344.203 234.469 343.609ZM235.016 336.719L235.047 339.047H232.344C231.646 339.047 231.031 339.115 230.5 339.25C229.969 339.375 229.526 339.562 229.172 339.812C228.818 340.062 228.552 340.365 228.375 340.719C228.198 341.073 228.109 341.474 228.109 341.922C228.109 342.37 228.214 342.781 228.422 343.156C228.63 343.521 228.932 343.807 229.328 344.016C229.734 344.224 230.224 344.328 230.797 344.328C231.568 344.328 232.24 344.172 232.812 343.859C233.396 343.536 233.854 343.146 234.188 342.688C234.521 342.219 234.698 341.776 234.719 341.359L235.938 343.031C235.812 343.458 235.599 343.917 235.297 344.406C234.995 344.896 234.599 345.365 234.109 345.812C233.63 346.25 233.052 346.609 232.375 346.891C231.708 347.172 230.938 347.312 230.062 347.312C228.958 347.312 227.974 347.094 227.109 346.656C226.245 346.208 225.568 345.609 225.078 344.859C224.589 344.099 224.344 343.24 224.344 342.281C224.344 341.385 224.51 340.594 224.844 339.906C225.188 339.208 225.688 338.625 226.344 338.156C227.01 337.688 227.823 337.333 228.781 337.094C229.74 336.844 230.833 336.719 232.062 336.719H235.016ZM249.938 330.094V332.844H240.406V330.094H249.938ZM243.156 325.953H246.922V342.328C246.922 342.849 246.995 343.25 247.141 343.531C247.297 343.802 247.51 343.984 247.781 344.078C248.052 344.172 248.37 344.219 248.734 344.219C248.995 344.219 249.245 344.203 249.484 344.172C249.724 344.141 249.917 344.109 250.062 344.078L250.078 346.953C249.766 347.047 249.401 347.13 248.984 347.203C248.578 347.276 248.109 347.312 247.578 347.312C246.714 347.312 245.948 347.161 245.281 346.859C244.615 346.547 244.094 346.042 243.719 345.344C243.344 344.646 243.156 343.719 243.156 342.562V325.953ZM276.219 333.75V336.859H264.141V333.75H276.219ZM265.109 324.25V347H261.188V324.25H265.109ZM279.234 324.25V347H275.328V324.25H279.234ZM293.062 343.609V335.547C293.062 334.943 292.953 334.422 292.734 333.984C292.516 333.547 292.182 333.208 291.734 332.969C291.297 332.729 290.745 332.609 290.078 332.609C289.464 332.609 288.932 332.714 288.484 332.922C288.036 333.13 287.688 333.411 287.438 333.766C287.188 334.12 287.062 334.521 287.062 334.969H283.312C283.312 334.302 283.474 333.656 283.797 333.031C284.12 332.406 284.589 331.849 285.203 331.359C285.818 330.87 286.552 330.484 287.406 330.203C288.26 329.922 289.219 329.781 290.281 329.781C291.552 329.781 292.677 329.995 293.656 330.422C294.646 330.849 295.422 331.495 295.984 332.359C296.557 333.214 296.844 334.286 296.844 335.578V343.094C296.844 343.865 296.896 344.557 297 345.172C297.115 345.776 297.276 346.302 297.484 346.75V347H293.625C293.448 346.594 293.307 346.078 293.203 345.453C293.109 344.818 293.062 344.203 293.062 343.609ZM293.609 336.719L293.641 339.047H290.938C290.24 339.047 289.625 339.115 289.094 339.25C288.562 339.375 288.12 339.562 287.766 339.812C287.411 340.062 287.146 340.365 286.969 340.719C286.792 341.073 286.703 341.474 286.703 341.922C286.703 342.37 286.807 342.781 287.016 343.156C287.224 343.521 287.526 343.807 287.922 344.016C288.328 344.224 288.818 344.328 289.391 344.328C290.161 344.328 290.833 344.172 291.406 343.859C291.99 343.536 292.448 343.146 292.781 342.688C293.115 342.219 293.292 341.776 293.312 341.359L294.531 343.031C294.406 343.458 294.193 343.917 293.891 344.406C293.589 344.896 293.193 345.365 292.703 345.812C292.224 346.25 291.646 346.609 290.969 346.891C290.302 347.172 289.531 347.312 288.656 347.312C287.552 347.312 286.568 347.094 285.703 346.656C284.839 346.208 284.161 345.609 283.672 344.859C283.182 344.099 282.938 343.24 282.938 342.281C282.938 341.385 283.104 340.594 283.438 339.906C283.781 339.208 284.281 338.625 284.938 338.156C285.604 337.688 286.417 337.333 287.375 337.094C288.333 336.844 289.427 336.719 290.656 336.719H293.609ZM304.562 333.312V347H300.797V330.094H304.391L304.562 333.312ZM309.734 329.984L309.703 333.484C309.474 333.443 309.224 333.411 308.953 333.391C308.693 333.37 308.432 333.359 308.172 333.359C307.526 333.359 306.958 333.453 306.469 333.641C305.979 333.818 305.568 334.078 305.234 334.422C304.911 334.755 304.661 335.161 304.484 335.641C304.307 336.12 304.203 336.656 304.172 337.25L303.312 337.312C303.312 336.25 303.417 335.266 303.625 334.359C303.833 333.453 304.146 332.656 304.562 331.969C304.99 331.281 305.521 330.745 306.156 330.359C306.802 329.974 307.547 329.781 308.391 329.781C308.62 329.781 308.865 329.802 309.125 329.844C309.396 329.885 309.599 329.932 309.734 329.984ZM317.875 344.016L322.016 330.094H325.922L320.047 347H317.609L317.875 344.016ZM314.703 330.094L318.922 344.078L319.125 347H316.688L310.781 330.094H314.703ZM337.531 343.609V335.547C337.531 334.943 337.422 334.422 337.203 333.984C336.984 333.547 336.651 333.208 336.203 332.969C335.766 332.729 335.214 332.609 334.547 332.609C333.932 332.609 333.401 332.714 332.953 332.922C332.505 333.13 332.156 333.411 331.906 333.766C331.656 334.12 331.531 334.521 331.531 334.969H327.781C327.781 334.302 327.943 333.656 328.266 333.031C328.589 332.406 329.057 331.849 329.672 331.359C330.286 330.87 331.021 330.484 331.875 330.203C332.729 329.922 333.688 329.781 334.75 329.781C336.021 329.781 337.146 329.995 338.125 330.422C339.115 330.849 339.891 331.495 340.453 332.359C341.026 333.214 341.312 334.286 341.312 335.578V343.094C341.312 343.865 341.365 344.557 341.469 345.172C341.583 345.776 341.745 346.302 341.953 346.75V347H338.094C337.917 346.594 337.776 346.078 337.672 345.453C337.578 344.818 337.531 344.203 337.531 343.609ZM338.078 336.719L338.109 339.047H335.406C334.708 339.047 334.094 339.115 333.562 339.25C333.031 339.375 332.589 339.562 332.234 339.812C331.88 340.062 331.615 340.365 331.438 340.719C331.26 341.073 331.172 341.474 331.172 341.922C331.172 342.37 331.276 342.781 331.484 343.156C331.693 343.521 331.995 343.807 332.391 344.016C332.797 344.224 333.286 344.328 333.859 344.328C334.63 344.328 335.302 344.172 335.875 343.859C336.458 343.536 336.917 343.146 337.25 342.688C337.583 342.219 337.76 341.776 337.781 341.359L339 343.031C338.875 343.458 338.661 343.917 338.359 344.406C338.057 344.896 337.661 345.365 337.172 345.812C336.693 346.25 336.115 346.609 335.438 346.891C334.771 347.172 334 347.312 333.125 347.312C332.021 347.312 331.036 347.094 330.172 346.656C329.307 346.208 328.63 345.609 328.141 344.859C327.651 344.099 327.406 343.24 327.406 342.281C327.406 341.385 327.573 340.594 327.906 339.906C328.25 339.208 328.75 338.625 329.406 338.156C330.073 337.688 330.885 337.333 331.844 337.094C332.802 336.844 333.896 336.719 335.125 336.719H338.078ZM349.031 333.312V347H345.266V330.094H348.859L349.031 333.312ZM354.203 329.984L354.172 333.484C353.943 333.443 353.693 333.411 353.422 333.391C353.161 333.37 352.901 333.359 352.641 333.359C351.995 333.359 351.427 333.453 350.938 333.641C350.448 333.818 350.036 334.078 349.703 334.422C349.38 334.755 349.13 335.161 348.953 335.641C348.776 336.12 348.672 336.656 348.641 337.25L347.781 337.312C347.781 336.25 347.885 335.266 348.094 334.359C348.302 333.453 348.615 332.656 349.031 331.969C349.458 331.281 349.99 330.745 350.625 330.359C351.271 329.974 352.016 329.781 352.859 329.781C353.089 329.781 353.333 329.802 353.594 329.844C353.865 329.885 354.068 329.932 354.203 329.984ZM366.562 343.5V323H370.344V347H366.922L366.562 343.5ZM355.562 338.734V338.406C355.562 337.125 355.714 335.958 356.016 334.906C356.318 333.844 356.755 332.932 357.328 332.172C357.901 331.401 358.599 330.812 359.422 330.406C360.245 329.99 361.172 329.781 362.203 329.781C363.224 329.781 364.12 329.979 364.891 330.375C365.661 330.771 366.318 331.339 366.859 332.078C367.401 332.807 367.833 333.682 368.156 334.703C368.479 335.714 368.708 336.839 368.844 338.078V339.125C368.708 340.333 368.479 341.438 368.156 342.438C367.833 343.438 367.401 344.302 366.859 345.031C366.318 345.76 365.656 346.323 364.875 346.719C364.104 347.115 363.203 347.312 362.172 347.312C361.151 347.312 360.229 347.099 359.406 346.672C358.594 346.245 357.901 345.646 357.328 344.875C356.755 344.104 356.318 343.198 356.016 342.156C355.714 341.104 355.562 339.964 355.562 338.734ZM359.328 338.406V338.734C359.328 339.505 359.396 340.224 359.531 340.891C359.677 341.557 359.901 342.146 360.203 342.656C360.505 343.156 360.896 343.552 361.375 343.844C361.865 344.125 362.448 344.266 363.125 344.266C363.979 344.266 364.682 344.078 365.234 343.703C365.786 343.328 366.219 342.823 366.531 342.188C366.854 341.542 367.073 340.823 367.188 340.031V337.203C367.125 336.589 366.995 336.016 366.797 335.484C366.609 334.953 366.354 334.49 366.031 334.094C365.708 333.688 365.307 333.375 364.828 333.156C364.359 332.927 363.802 332.812 363.156 332.812C362.469 332.812 361.885 332.958 361.406 333.25C360.927 333.542 360.531 333.943 360.219 334.453C359.917 334.964 359.693 335.557 359.547 336.234C359.401 336.911 359.328 337.635 359.328 338.406ZM396.062 339.594H399.969C399.844 341.083 399.427 342.411 398.719 343.578C398.01 344.734 397.016 345.646 395.734 346.312C394.453 346.979 392.896 347.312 391.062 347.312C389.656 347.312 388.391 347.062 387.266 346.562C386.141 346.052 385.177 345.333 384.375 344.406C383.573 343.469 382.958 342.339 382.531 341.016C382.115 339.693 381.906 338.214 381.906 336.578V334.688C381.906 333.052 382.12 331.573 382.547 330.25C382.984 328.927 383.609 327.797 384.422 326.859C385.234 325.911 386.208 325.188 387.344 324.688C388.49 324.188 389.776 323.938 391.203 323.938C393.016 323.938 394.547 324.271 395.797 324.938C397.047 325.604 398.016 326.526 398.703 327.703C399.401 328.88 399.828 330.229 399.984 331.75H396.078C395.974 330.771 395.745 329.932 395.391 329.234C395.047 328.536 394.536 328.005 393.859 327.641C393.182 327.266 392.297 327.078 391.203 327.078C390.307 327.078 389.526 327.245 388.859 327.578C388.193 327.911 387.635 328.401 387.188 329.047C386.74 329.693 386.401 330.49 386.172 331.438C385.953 332.375 385.844 333.448 385.844 334.656V336.578C385.844 337.724 385.943 338.766 386.141 339.703C386.349 340.63 386.661 341.427 387.078 342.094C387.505 342.76 388.047 343.276 388.703 343.641C389.359 344.005 390.146 344.188 391.062 344.188C392.177 344.188 393.078 344.01 393.766 343.656C394.464 343.302 394.99 342.786 395.344 342.109C395.708 341.422 395.948 340.583 396.062 339.594ZM402.438 338.734V338.375C402.438 337.156 402.615 336.026 402.969 334.984C403.323 333.932 403.833 333.021 404.5 332.25C405.177 331.469 406 330.865 406.969 330.438C407.948 330 409.052 329.781 410.281 329.781C411.521 329.781 412.625 330 413.594 330.438C414.573 330.865 415.401 331.469 416.078 332.25C416.755 333.021 417.271 333.932 417.625 334.984C417.979 336.026 418.156 337.156 418.156 338.375V338.734C418.156 339.953 417.979 341.083 417.625 342.125C417.271 343.167 416.755 344.078 416.078 344.859C415.401 345.63 414.578 346.234 413.609 346.672C412.641 347.099 411.542 347.312 410.312 347.312C409.073 347.312 407.964 347.099 406.984 346.672C406.016 346.234 405.193 345.63 404.516 344.859C403.839 344.078 403.323 343.167 402.969 342.125C402.615 341.083 402.438 339.953 402.438 338.734ZM406.203 338.375V338.734C406.203 339.495 406.281 340.214 406.438 340.891C406.594 341.568 406.839 342.161 407.172 342.672C407.505 343.182 407.932 343.583 408.453 343.875C408.974 344.167 409.594 344.312 410.312 344.312C411.01 344.312 411.615 344.167 412.125 343.875C412.646 343.583 413.073 343.182 413.406 342.672C413.74 342.161 413.984 341.568 414.141 340.891C414.307 340.214 414.391 339.495 414.391 338.734V338.375C414.391 337.625 414.307 336.917 414.141 336.25C413.984 335.573 413.734 334.974 413.391 334.453C413.057 333.932 412.63 333.526 412.109 333.234C411.599 332.932 410.99 332.781 410.281 332.781C409.573 332.781 408.958 332.932 408.438 333.234C407.927 333.526 407.505 333.932 407.172 334.453C406.839 334.974 406.594 335.573 406.438 336.25C406.281 336.917 406.203 337.625 406.203 338.375ZM425.078 333.531V347H421.312V330.094H424.859L425.078 333.531ZM424.469 337.922L423.188 337.906C423.188 336.74 423.333 335.661 423.625 334.672C423.917 333.682 424.344 332.823 424.906 332.094C425.469 331.354 426.167 330.786 427 330.391C427.844 329.984 428.818 329.781 429.922 329.781C430.693 329.781 431.396 329.896 432.031 330.125C432.677 330.344 433.234 330.693 433.703 331.172C434.182 331.651 434.547 332.266 434.797 333.016C435.057 333.766 435.188 334.672 435.188 335.734V347H431.422V336.062C431.422 335.24 431.297 334.594 431.047 334.125C430.807 333.656 430.458 333.323 430 333.125C429.552 332.917 429.016 332.812 428.391 332.812C427.682 332.812 427.078 332.948 426.578 333.219C426.089 333.49 425.688 333.859 425.375 334.328C425.062 334.797 424.833 335.339 424.688 335.953C424.542 336.568 424.469 337.224 424.469 337.922ZM434.953 336.922L433.188 337.312C433.188 336.292 433.328 335.328 433.609 334.422C433.901 333.505 434.323 332.703 434.875 332.016C435.438 331.318 436.13 330.771 436.953 330.375C437.776 329.979 438.719 329.781 439.781 329.781C440.646 329.781 441.417 329.901 442.094 330.141C442.781 330.37 443.365 330.734 443.844 331.234C444.323 331.734 444.688 332.385 444.938 333.188C445.188 333.979 445.312 334.938 445.312 336.062V347H441.531V336.047C441.531 335.193 441.406 334.531 441.156 334.062C440.917 333.594 440.573 333.271 440.125 333.094C439.677 332.906 439.141 332.812 438.516 332.812C437.932 332.812 437.417 332.922 436.969 333.141C436.531 333.349 436.161 333.646 435.859 334.031C435.557 334.406 435.328 334.839 435.172 335.328C435.026 335.818 434.953 336.349 434.953 336.922ZM452.969 333.344V353.5H449.203V330.094H452.672L452.969 333.344ZM463.984 338.391V338.719C463.984 339.948 463.839 341.089 463.547 342.141C463.266 343.182 462.844 344.094 462.281 344.875C461.729 345.646 461.047 346.245 460.234 346.672C459.422 347.099 458.484 347.312 457.422 347.312C456.37 347.312 455.448 347.12 454.656 346.734C453.875 346.339 453.214 345.781 452.672 345.062C452.13 344.344 451.693 343.5 451.359 342.531C451.036 341.552 450.807 340.479 450.672 339.312V338.047C450.807 336.807 451.036 335.682 451.359 334.672C451.693 333.661 452.13 332.792 452.672 332.062C453.214 331.333 453.875 330.771 454.656 330.375C455.438 329.979 456.349 329.781 457.391 329.781C458.453 329.781 459.396 329.99 460.219 330.406C461.042 330.812 461.734 331.396 462.297 332.156C462.859 332.906 463.281 333.812 463.562 334.875C463.844 335.927 463.984 337.099 463.984 338.391ZM460.219 338.719V338.391C460.219 337.609 460.146 336.885 460 336.219C459.854 335.542 459.625 334.948 459.312 334.438C459 333.927 458.599 333.531 458.109 333.25C457.63 332.958 457.052 332.812 456.375 332.812C455.708 332.812 455.135 332.927 454.656 333.156C454.177 333.375 453.776 333.682 453.453 334.078C453.13 334.474 452.88 334.938 452.703 335.469C452.526 335.99 452.401 336.557 452.328 337.172V340.203C452.453 340.953 452.667 341.641 452.969 342.266C453.271 342.891 453.698 343.391 454.25 343.766C454.812 344.13 455.531 344.312 456.406 344.312C457.083 344.312 457.661 344.167 458.141 343.875C458.62 343.583 459.01 343.182 459.312 342.672C459.625 342.151 459.854 341.552 460 340.875C460.146 340.198 460.219 339.479 460.219 338.719ZM477.359 343.016V330.094H481.141V347H477.578L477.359 343.016ZM477.891 339.5L479.156 339.469C479.156 340.604 479.031 341.651 478.781 342.609C478.531 343.557 478.146 344.385 477.625 345.094C477.104 345.792 476.438 346.339 475.625 346.734C474.812 347.12 473.839 347.312 472.703 347.312C471.88 347.312 471.125 347.193 470.438 346.953C469.75 346.714 469.156 346.344 468.656 345.844C468.167 345.344 467.786 344.693 467.516 343.891C467.245 343.089 467.109 342.13 467.109 341.016V330.094H470.875V341.047C470.875 341.661 470.948 342.177 471.094 342.594C471.24 343 471.438 343.328 471.688 343.578C471.938 343.828 472.229 344.005 472.562 344.109C472.896 344.214 473.25 344.266 473.625 344.266C474.698 344.266 475.542 344.057 476.156 343.641C476.781 343.214 477.224 342.641 477.484 341.922C477.755 341.203 477.891 340.396 477.891 339.5ZM492.75 330.094V332.844H483.219V330.094H492.75ZM485.969 325.953H489.734V342.328C489.734 342.849 489.807 343.25 489.953 343.531C490.109 343.802 490.323 343.984 490.594 344.078C490.865 344.172 491.182 344.219 491.547 344.219C491.807 344.219 492.057 344.203 492.297 344.172C492.536 344.141 492.729 344.109 492.875 344.078L492.891 346.953C492.578 347.047 492.214 347.13 491.797 347.203C491.391 347.276 490.922 347.312 490.391 347.312C489.526 347.312 488.76 347.161 488.094 346.859C487.427 346.547 486.906 346.042 486.531 345.344C486.156 344.646 485.969 343.719 485.969 342.562V325.953ZM503.109 347.312C501.859 347.312 500.729 347.109 499.719 346.703C498.719 346.286 497.865 345.708 497.156 344.969C496.458 344.229 495.922 343.359 495.547 342.359C495.172 341.359 494.984 340.281 494.984 339.125V338.5C494.984 337.177 495.177 335.979 495.562 334.906C495.948 333.833 496.484 332.917 497.172 332.156C497.859 331.385 498.672 330.797 499.609 330.391C500.547 329.984 501.562 329.781 502.656 329.781C503.865 329.781 504.922 329.984 505.828 330.391C506.734 330.797 507.484 331.37 508.078 332.109C508.682 332.839 509.13 333.708 509.422 334.719C509.724 335.729 509.875 336.844 509.875 338.062V339.672H496.812V336.969H506.156V336.672C506.135 335.995 506 335.359 505.75 334.766C505.51 334.172 505.141 333.693 504.641 333.328C504.141 332.964 503.474 332.781 502.641 332.781C502.016 332.781 501.458 332.917 500.969 333.188C500.49 333.448 500.089 333.828 499.766 334.328C499.443 334.828 499.193 335.432 499.016 336.141C498.849 336.839 498.766 337.625 498.766 338.5V339.125C498.766 339.865 498.865 340.552 499.062 341.188C499.271 341.812 499.573 342.359 499.969 342.828C500.365 343.297 500.844 343.667 501.406 343.938C501.969 344.198 502.609 344.328 503.328 344.328C504.234 344.328 505.042 344.146 505.75 343.781C506.458 343.417 507.073 342.901 507.594 342.234L509.578 344.156C509.214 344.688 508.74 345.198 508.156 345.688C507.573 346.167 506.859 346.557 506.016 346.859C505.182 347.161 504.214 347.312 503.109 347.312ZM516.594 333.312V347H512.828V330.094H516.422L516.594 333.312ZM521.766 329.984L521.734 333.484C521.505 333.443 521.255 333.411 520.984 333.391C520.724 333.37 520.464 333.359 520.203 333.359C519.557 333.359 518.99 333.453 518.5 333.641C518.01 333.818 517.599 334.078 517.266 334.422C516.943 334.755 516.693 335.161 516.516 335.641C516.339 336.12 516.234 336.656 516.203 337.25L515.344 337.312C515.344 336.25 515.448 335.266 515.656 334.359C515.865 333.453 516.177 332.656 516.594 331.969C517.021 331.281 517.552 330.745 518.188 330.359C518.833 329.974 519.578 329.781 520.422 329.781C520.651 329.781 520.896 329.802 521.156 329.844C521.427 329.885 521.63 329.932 521.766 329.984ZM544.438 341.141C544.438 340.672 544.365 340.255 544.219 339.891C544.083 339.526 543.839 339.193 543.484 338.891C543.13 338.589 542.63 338.297 541.984 338.016C541.349 337.724 540.536 337.427 539.547 337.125C538.464 336.792 537.464 336.422 536.547 336.016C535.641 335.599 534.849 335.12 534.172 334.578C533.495 334.026 532.969 333.396 532.594 332.688C532.219 331.969 532.031 331.141 532.031 330.203C532.031 329.276 532.224 328.432 532.609 327.672C533.005 326.911 533.562 326.255 534.281 325.703C535.01 325.141 535.87 324.708 536.859 324.406C537.849 324.094 538.943 323.938 540.141 323.938C541.828 323.938 543.281 324.25 544.5 324.875C545.729 325.5 546.672 326.339 547.328 327.391C547.995 328.443 548.328 329.604 548.328 330.875H544.438C544.438 330.125 544.276 329.464 543.953 328.891C543.641 328.307 543.161 327.849 542.516 327.516C541.88 327.182 541.073 327.016 540.094 327.016C539.167 327.016 538.396 327.156 537.781 327.438C537.167 327.719 536.708 328.099 536.406 328.578C536.104 329.057 535.953 329.599 535.953 330.203C535.953 330.63 536.052 331.021 536.25 331.375C536.448 331.719 536.75 332.042 537.156 332.344C537.562 332.635 538.073 332.911 538.688 333.172C539.302 333.432 540.026 333.682 540.859 333.922C542.12 334.297 543.219 334.714 544.156 335.172C545.094 335.62 545.875 336.13 546.5 336.703C547.125 337.276 547.594 337.927 547.906 338.656C548.219 339.375 548.375 340.193 548.375 341.109C548.375 342.068 548.182 342.932 547.797 343.703C547.411 344.464 546.859 345.115 546.141 345.656C545.432 346.188 544.578 346.599 543.578 346.891C542.589 347.172 541.484 347.312 540.266 347.312C539.172 347.312 538.094 347.167 537.031 346.875C535.979 346.583 535.021 346.141 534.156 345.547C533.292 344.943 532.604 344.193 532.094 343.297C531.583 342.391 531.328 341.333 531.328 340.125H535.25C535.25 340.865 535.375 341.495 535.625 342.016C535.885 342.536 536.245 342.964 536.703 343.297C537.161 343.62 537.693 343.859 538.297 344.016C538.911 344.172 539.568 344.25 540.266 344.25C541.182 344.25 541.948 344.12 542.562 343.859C543.188 343.599 543.656 343.234 543.969 342.766C544.281 342.297 544.438 341.755 544.438 341.141ZM550.75 338.734V338.375C550.75 337.156 550.927 336.026 551.281 334.984C551.635 333.932 552.146 333.021 552.812 332.25C553.49 331.469 554.312 330.865 555.281 330.438C556.26 330 557.365 329.781 558.594 329.781C559.833 329.781 560.938 330 561.906 330.438C562.885 330.865 563.714 331.469 564.391 332.25C565.068 333.021 565.583 333.932 565.938 334.984C566.292 336.026 566.469 337.156 566.469 338.375V338.734C566.469 339.953 566.292 341.083 565.938 342.125C565.583 343.167 565.068 344.078 564.391 344.859C563.714 345.63 562.891 346.234 561.922 346.672C560.953 347.099 559.854 347.312 558.625 347.312C557.385 347.312 556.276 347.099 555.297 346.672C554.328 346.234 553.505 345.63 552.828 344.859C552.151 344.078 551.635 343.167 551.281 342.125C550.927 341.083 550.75 339.953 550.75 338.734ZM554.516 338.375V338.734C554.516 339.495 554.594 340.214 554.75 340.891C554.906 341.568 555.151 342.161 555.484 342.672C555.818 343.182 556.245 343.583 556.766 343.875C557.286 344.167 557.906 344.312 558.625 344.312C559.323 344.312 559.927 344.167 560.438 343.875C560.958 343.583 561.385 343.182 561.719 342.672C562.052 342.161 562.297 341.568 562.453 340.891C562.62 340.214 562.703 339.495 562.703 338.734V338.375C562.703 337.625 562.62 336.917 562.453 336.25C562.297 335.573 562.047 334.974 561.703 334.453C561.37 333.932 560.943 333.526 560.422 333.234C559.911 332.932 559.302 332.781 558.594 332.781C557.885 332.781 557.271 332.932 556.75 333.234C556.24 333.526 555.818 333.932 555.484 334.453C555.151 334.974 554.906 335.573 554.75 336.25C554.594 336.917 554.516 337.625 554.516 338.375ZM576.531 344.312C577.146 344.312 577.698 344.193 578.188 343.953C578.688 343.703 579.089 343.359 579.391 342.922C579.703 342.484 579.875 341.979 579.906 341.406H583.453C583.432 342.5 583.109 343.495 582.484 344.391C581.859 345.286 581.031 346 580 346.531C578.969 347.052 577.828 347.312 576.578 347.312C575.286 347.312 574.161 347.094 573.203 346.656C572.245 346.208 571.448 345.594 570.812 344.812C570.177 344.031 569.698 343.13 569.375 342.109C569.062 341.089 568.906 339.995 568.906 338.828V338.281C568.906 337.115 569.062 336.021 569.375 335C569.698 333.969 570.177 333.062 570.812 332.281C571.448 331.5 572.245 330.891 573.203 330.453C574.161 330.005 575.281 329.781 576.562 329.781C577.917 329.781 579.104 330.052 580.125 330.594C581.146 331.125 581.948 331.87 582.531 332.828C583.125 333.776 583.432 334.88 583.453 336.141H579.906C579.875 335.516 579.719 334.953 579.438 334.453C579.167 333.943 578.781 333.536 578.281 333.234C577.792 332.932 577.203 332.781 576.516 332.781C575.755 332.781 575.125 332.938 574.625 333.25C574.125 333.552 573.734 333.969 573.453 334.5C573.172 335.021 572.969 335.609 572.844 336.266C572.729 336.911 572.672 337.583 572.672 338.281V338.828C572.672 339.526 572.729 340.203 572.844 340.859C572.958 341.516 573.156 342.104 573.438 342.625C573.729 343.135 574.125 343.547 574.625 343.859C575.125 344.161 575.76 344.312 576.531 344.312ZM590.375 330.094V347H586.594V330.094H590.375ZM586.344 325.656C586.344 325.083 586.531 324.609 586.906 324.234C587.292 323.849 587.823 323.656 588.5 323.656C589.167 323.656 589.693 323.849 590.078 324.234C590.464 324.609 590.656 325.083 590.656 325.656C590.656 326.219 590.464 326.688 590.078 327.062C589.693 327.438 589.167 327.625 588.5 327.625C587.823 327.625 587.292 327.438 586.906 327.062C586.531 326.688 586.344 326.219 586.344 325.656ZM601.953 347.312C600.703 347.312 599.573 347.109 598.562 346.703C597.562 346.286 596.708 345.708 596 344.969C595.302 344.229 594.766 343.359 594.391 342.359C594.016 341.359 593.828 340.281 593.828 339.125V338.5C593.828 337.177 594.021 335.979 594.406 334.906C594.792 333.833 595.328 332.917 596.016 332.156C596.703 331.385 597.516 330.797 598.453 330.391C599.391 329.984 600.406 329.781 601.5 329.781C602.708 329.781 603.766 329.984 604.672 330.391C605.578 330.797 606.328 331.37 606.922 332.109C607.526 332.839 607.974 333.708 608.266 334.719C608.568 335.729 608.719 336.844 608.719 338.062V339.672H595.656V336.969H605V336.672C604.979 335.995 604.844 335.359 604.594 334.766C604.354 334.172 603.984 333.693 603.484 333.328C602.984 332.964 602.318 332.781 601.484 332.781C600.859 332.781 600.302 332.917 599.812 333.188C599.333 333.448 598.932 333.828 598.609 334.328C598.286 334.828 598.036 335.432 597.859 336.141C597.693 336.839 597.609 337.625 597.609 338.5V339.125C597.609 339.865 597.708 340.552 597.906 341.188C598.115 341.812 598.417 342.359 598.812 342.828C599.208 343.297 599.688 343.667 600.25 343.938C600.812 344.198 601.453 344.328 602.172 344.328C603.078 344.328 603.885 344.146 604.594 343.781C605.302 343.417 605.917 342.901 606.438 342.234L608.422 344.156C608.057 344.688 607.583 345.198 607 345.688C606.417 346.167 605.703 346.557 604.859 346.859C604.026 347.161 603.057 347.312 601.953 347.312ZM619.406 330.094V332.844H609.875V330.094H619.406ZM612.625 325.953H616.391V342.328C616.391 342.849 616.464 343.25 616.609 343.531C616.766 343.802 616.979 343.984 617.25 344.078C617.521 344.172 617.839 344.219 618.203 344.219C618.464 344.219 618.714 344.203 618.953 344.172C619.193 344.141 619.385 344.109 619.531 344.078L619.547 346.953C619.234 347.047 618.87 347.13 618.453 347.203C618.047 347.276 617.578 347.312 617.047 347.312C616.182 347.312 615.417 347.161 614.75 346.859C614.083 346.547 613.562 346.042 613.188 345.344C612.812 344.646 612.625 343.719 612.625 342.562V325.953ZM627.219 345.156L631.812 330.094H635.844L629.062 349.578C628.906 349.995 628.703 350.448 628.453 350.938C628.203 351.427 627.875 351.891 627.469 352.328C627.073 352.776 626.578 353.135 625.984 353.406C625.391 353.688 624.672 353.828 623.828 353.828C623.495 353.828 623.172 353.797 622.859 353.734C622.557 353.682 622.271 353.625 622 353.562L621.984 350.688C622.089 350.698 622.214 350.708 622.359 350.719C622.516 350.729 622.641 350.734 622.734 350.734C623.359 350.734 623.88 350.656 624.297 350.5C624.714 350.354 625.052 350.115 625.312 349.781C625.583 349.448 625.812 349 626 348.438L627.219 345.156ZM624.625 330.094L628.641 342.75L629.312 346.719L626.703 347.391L620.562 330.094H624.625Z" fill="black"/>
<mask id="mask0_411_46" style="mask-type:alpha" maskUnits="userSpaceOnUse" x="84" y="199" width="807" height="97">
<path d="M123.533 204.4C131.469 204.4 138.338 205.723 144.141 208.368C150.029 211.013 154.552 214.768 157.709 219.632C160.866 224.496 162.445 230.256 162.445 236.912C162.445 243.483 160.866 249.243 157.709 254.192C154.552 259.056 150.029 262.811 144.141 265.456C138.338 268.016 131.469 269.296 123.533 269.296H105.485V294H84.749V204.4H123.533ZM122.381 252.4C128.61 252.4 133.346 251.077 136.589 248.432C139.832 245.701 141.453 241.861 141.453 236.912C141.453 231.877 139.832 228.037 136.589 225.392C133.346 222.661 128.61 221.296 122.381 221.296H105.485V252.4H122.381ZM194.913 234.224C197.302 230.896 200.502 228.379 204.513 226.672C208.609 224.965 213.302 224.112 218.593 224.112V242.544C216.374 242.373 214.881 242.288 214.113 242.288C208.396 242.288 203.916 243.909 200.673 247.152C197.43 250.309 195.809 255.088 195.809 261.488V294H175.841V225.136H194.913V234.224ZM262.609 295.024C255.356 295.024 248.828 293.531 243.025 290.544C237.308 287.472 232.828 283.248 229.585 277.872C226.342 272.496 224.721 266.395 224.721 259.568C224.721 252.741 226.342 246.64 229.585 241.264C232.828 235.888 237.308 231.707 243.025 228.72C248.828 225.648 255.356 224.112 262.609 224.112C269.862 224.112 276.348 225.648 282.065 228.72C287.782 231.707 292.262 235.888 295.505 241.264C298.748 246.64 300.369 252.741 300.369 259.568C300.369 266.395 298.748 272.496 295.505 277.872C292.262 283.248 287.782 287.472 282.065 290.544C276.348 293.531 269.862 295.024 262.609 295.024ZM262.609 278.64C267.729 278.64 271.91 276.933 275.153 273.52C278.481 270.021 280.145 265.371 280.145 259.568C280.145 253.765 278.481 249.157 275.153 245.744C271.91 242.245 267.729 240.496 262.609 240.496C257.489 240.496 253.265 242.245 249.937 245.744C246.609 249.157 244.945 253.765 244.945 259.568C244.945 265.371 246.609 270.021 249.937 273.52C253.265 276.933 257.489 278.64 262.609 278.64ZM383.86 199.024V294H364.788V286.064C359.839 292.037 352.671 295.024 343.284 295.024C336.799 295.024 330.911 293.573 325.62 290.672C320.415 287.771 316.319 283.632 313.332 278.256C310.345 272.88 308.852 266.651 308.852 259.568C308.852 252.485 310.345 246.256 313.332 240.88C316.319 235.504 320.415 231.365 325.62 228.464C330.911 225.563 336.799 224.112 343.284 224.112C352.073 224.112 358.943 226.885 363.892 232.432V199.024H383.86ZM346.74 278.64C351.775 278.64 355.956 276.933 359.284 273.52C362.612 270.021 364.276 265.371 364.276 259.568C364.276 253.765 362.612 249.157 359.284 245.744C355.956 242.245 351.775 240.496 346.74 240.496C341.62 240.496 337.396 242.245 334.068 245.744C330.74 249.157 329.076 253.765 329.076 259.568C329.076 265.371 330.74 270.021 334.068 273.52C337.396 276.933 341.62 278.64 346.74 278.64ZM471.717 225.136V294H452.773V285.808C450.128 288.795 446.97 291.099 443.301 292.72C439.632 294.256 435.664 295.024 431.397 295.024C422.352 295.024 415.184 292.421 409.893 287.216C404.602 282.011 401.957 274.288 401.957 264.048V225.136H421.925V261.104C421.925 272.197 426.576 277.744 435.877 277.744C440.656 277.744 444.496 276.208 447.397 273.136C450.298 269.979 451.749 265.328 451.749 259.184V225.136H471.717ZM523.496 295.024C516.157 295.024 509.544 293.531 503.656 290.544C497.853 287.472 493.288 283.248 489.96 277.872C486.717 272.496 485.096 266.395 485.096 259.568C485.096 252.741 486.717 246.64 489.96 241.264C493.288 235.888 497.853 231.707 503.656 228.72C509.544 225.648 516.157 224.112 523.496 224.112C530.749 224.112 537.064 225.648 542.44 228.72C547.901 231.707 551.869 236.016 554.344 241.648L538.856 249.968C535.272 243.653 530.109 240.496 523.368 240.496C518.163 240.496 513.853 242.203 510.44 245.616C507.027 249.029 505.32 253.68 505.32 259.568C505.32 265.456 507.027 270.107 510.44 273.52C513.853 276.933 518.163 278.64 523.368 278.64C530.195 278.64 535.357 275.483 538.856 269.168L554.344 277.616C551.869 283.077 547.901 287.344 542.44 290.416C537.064 293.488 530.749 295.024 523.496 295.024ZM611.257 290.672C609.294 292.123 606.862 293.232 603.961 294C601.145 294.683 598.158 295.024 595.001 295.024C586.809 295.024 580.452 292.933 575.929 288.752C571.492 284.571 569.273 278.427 569.273 270.32V242.032H558.649V226.672H569.273V209.904H589.241V226.672H606.393V242.032H589.241V270.064C589.241 272.965 589.966 275.227 591.417 276.848C592.953 278.384 595.086 279.152 597.817 279.152C600.974 279.152 603.662 278.299 605.881 276.592L611.257 290.672ZM660.124 204.4H680.86V277.104H725.788V294H660.124V204.4ZM764.492 224.112C775.159 224.112 783.351 226.672 789.068 231.792C794.785 236.827 797.644 244.464 797.644 254.704V294H778.956V285.424C775.201 291.824 768.204 295.024 757.964 295.024C752.673 295.024 748.065 294.128 744.14 292.336C740.3 290.544 737.356 288.069 735.308 284.912C733.26 281.755 732.236 278.171 732.236 274.16C732.236 267.76 734.625 262.725 739.404 259.056C744.268 255.387 751.735 253.552 761.804 253.552H777.676C777.676 249.2 776.353 245.872 773.708 243.568C771.063 241.179 767.095 239.984 761.804 239.984C758.135 239.984 754.508 240.581 750.924 241.776C747.425 242.885 744.439 244.421 741.964 246.384L734.796 232.432C738.551 229.787 743.031 227.739 748.236 226.288C753.527 224.837 758.945 224.112 764.492 224.112ZM762.956 281.584C766.369 281.584 769.399 280.816 772.044 279.28C774.689 277.659 776.567 275.312 777.676 272.24V265.2H763.98C755.788 265.2 751.692 267.888 751.692 273.264C751.692 275.824 752.673 277.872 754.636 279.408C756.684 280.859 759.457 281.584 762.956 281.584ZM856.42 224.112C862.82 224.112 868.623 225.605 873.828 228.592C879.119 231.493 883.257 235.632 886.244 241.008C889.231 246.299 890.724 252.485 890.724 259.568C890.724 266.651 889.231 272.88 886.244 278.256C883.257 283.547 879.119 287.685 873.828 290.672C868.623 293.573 862.82 295.024 856.42 295.024C846.948 295.024 839.737 292.037 834.788 286.064V294H815.716V199.024H835.684V232.432C840.719 226.885 847.631 224.112 856.42 224.112ZM852.964 278.64C858.084 278.64 862.265 276.933 865.508 273.52C868.836 270.021 870.5 265.371 870.5 259.568C870.5 253.765 868.836 249.157 865.508 245.744C862.265 242.245 858.084 240.496 852.964 240.496C847.844 240.496 843.62 242.245 840.292 245.744C837.049 249.157 835.428 253.765 835.428 259.568C835.428 265.371 837.049 270.021 840.292 273.52C843.62 276.933 847.844 278.64 852.964 278.64Z" fill="white"/>
<path d="M144.141 208.368L143.726 209.278L143.731 209.28L144.141 208.368ZM157.709 254.192L158.548 254.736L158.552 254.73L157.709 254.192ZM144.141 265.456L144.545 266.371L144.551 266.368L144.141 265.456ZM105.485 269.296V268.296H104.485V269.296H105.485ZM105.485 294V295H106.485V294H105.485ZM84.749 294H83.749V295H84.749V294ZM84.749 204.4V203.4H83.749V204.4H84.749ZM136.589 248.432L137.221 249.207L137.227 249.202L137.233 249.197L136.589 248.432ZM136.589 225.392L135.945 226.157L135.951 226.162L135.957 226.167L136.589 225.392ZM105.485 221.296V220.296H104.485V221.296H105.485ZM105.485 252.4H104.485V253.4H105.485V252.4ZM123.533 205.4C131.36 205.4 138.082 206.705 143.726 209.278L144.556 207.458C138.595 204.741 131.578 203.4 123.533 203.4V205.4ZM143.731 209.28C149.464 211.856 153.829 215.492 156.87 220.176L158.548 219.088C155.274 214.044 150.594 210.171 144.551 207.456L143.731 209.28ZM156.87 220.176C159.907 224.855 161.445 230.42 161.445 236.912H163.445C163.445 230.092 161.825 224.137 158.548 219.088L156.87 220.176ZM161.445 236.912C161.445 243.316 159.909 248.884 156.866 253.654L158.552 254.73C161.824 249.601 163.445 243.65 163.445 236.912H161.445ZM156.87 253.648C153.829 258.332 149.464 261.968 143.731 264.544L144.551 266.368C150.594 263.653 155.274 259.78 158.548 254.736L156.87 253.648ZM143.737 264.541C138.09 267.033 131.364 268.296 123.533 268.296V270.296C131.574 270.296 138.587 268.999 144.545 266.371L143.737 264.541ZM123.533 268.296H105.485V270.296H123.533V268.296ZM104.485 269.296V294H106.485V269.296H104.485ZM105.485 293H84.749V295H105.485V293ZM85.749 294V204.4H83.749V294H85.749ZM84.749 205.4H123.533V203.4H84.749V205.4ZM122.381 253.4C128.732 253.4 133.731 252.054 137.221 249.207L135.957 247.657C132.962 250.101 128.488 251.4 122.381 251.4V253.4ZM137.233 249.197C140.74 246.244 142.453 242.101 142.453 236.912H140.453C140.453 241.621 138.923 245.159 135.945 247.667L137.233 249.197ZM142.453 236.912C142.453 231.644 140.744 227.491 137.221 224.617L135.957 226.167C138.919 228.583 140.453 232.11 140.453 236.912H142.453ZM137.233 224.627C133.742 221.687 128.738 220.296 122.381 220.296V222.296C128.482 222.296 132.951 223.635 135.945 226.157L137.233 224.627ZM122.381 220.296H105.485V222.296H122.381V220.296ZM104.485 221.296V252.4H106.485V221.296H104.485ZM105.485 253.4H122.381V251.4H105.485V253.4ZM194.913 234.224H193.913V237.332L195.725 234.807L194.913 234.224ZM204.513 226.672L204.128 225.749L204.121 225.752L204.513 226.672ZM218.593 224.112H219.593V223.112H218.593V224.112ZM218.593 242.544L218.516 243.541L219.593 243.624V242.544H218.593ZM200.673 247.152L201.371 247.869L201.38 247.859L200.673 247.152ZM195.809 294V295H196.809V294H195.809ZM175.841 294H174.841V295H175.841V294ZM175.841 225.136V224.136H174.841V225.136H175.841ZM194.913 225.136H195.913V224.136H194.913V225.136ZM195.725 234.807C198.001 231.638 201.051 229.232 204.905 227.592L204.121 225.752C199.954 227.525 196.604 230.154 194.101 233.641L195.725 234.807ZM204.898 227.595C208.851 225.948 213.409 225.112 218.593 225.112V223.112C213.195 223.112 208.367 223.983 204.128 225.749L204.898 227.595ZM217.593 224.112V242.544H219.593V224.112H217.593ZM218.67 241.547C216.456 241.377 214.925 241.288 214.113 241.288V243.288C214.837 243.288 216.292 243.37 218.516 243.541L218.67 241.547ZM214.113 241.288C208.2 241.288 203.44 242.971 199.966 246.445L201.38 247.859C204.391 244.848 208.592 243.288 214.113 243.288V241.288ZM199.975 246.436C196.471 249.848 194.809 254.932 194.809 261.488H196.809C196.809 255.244 198.39 250.771 201.371 247.868L199.975 246.436ZM194.809 261.488V294H196.809V261.488H194.809ZM195.809 293H175.841V295H195.809V293ZM176.841 294V225.136H174.841V294H176.841ZM175.841 226.136H194.913V224.136H175.841V226.136ZM193.913 225.136V234.224H195.913V225.136H193.913ZM243.025 290.544L242.552 291.425L242.559 291.429L242.567 291.433L243.025 290.544ZM229.585 277.872L228.729 278.388L228.729 278.388L229.585 277.872ZM229.585 241.264L228.729 240.748L228.729 240.748L229.585 241.264ZM243.025 228.72L243.488 229.606L243.493 229.604L243.025 228.72ZM282.065 228.72L281.592 229.601L281.602 229.606L282.065 228.72ZM295.505 241.264L296.361 240.748L296.361 240.748L295.505 241.264ZM295.505 277.872L296.361 278.388L296.361 278.388L295.505 277.872ZM282.065 290.544L282.528 291.43L282.538 291.425L282.065 290.544ZM275.153 273.52L274.428 272.831L274.428 272.831L275.153 273.52ZM275.153 245.744L274.42 246.424L274.428 246.433L274.437 246.442L275.153 245.744ZM249.937 245.744L250.653 246.442L250.662 246.433L249.937 245.744ZM249.937 273.52L249.212 274.209L249.221 274.218L249.937 273.52ZM262.609 294.024C255.497 294.024 249.129 292.561 243.483 289.655L242.567 291.433C248.527 294.5 255.214 296.024 262.609 296.024V294.024ZM243.498 289.663C237.933 286.673 233.588 282.573 230.441 277.356L228.729 278.388C232.067 283.923 236.682 288.271 242.552 291.425L243.498 289.663ZM230.441 277.356C227.301 272.149 225.721 266.229 225.721 259.568H223.721C223.721 266.56 225.384 272.843 228.729 278.388L230.441 277.356ZM225.721 259.568C225.721 252.907 227.301 246.987 230.441 241.78L228.729 240.748C225.384 246.293 223.721 252.576 223.721 259.568H225.721ZM230.441 241.78C233.587 236.566 237.929 232.511 243.488 229.606L242.562 227.834C236.687 230.903 232.069 235.21 228.729 240.748L230.441 241.78ZM243.493 229.604C249.137 226.616 255.501 225.112 262.609 225.112V223.112C255.21 223.112 248.519 224.68 242.557 227.836L243.493 229.604ZM262.609 225.112C269.717 225.112 276.036 226.616 281.592 229.601L282.538 227.839C276.659 224.68 270.008 223.112 262.609 223.112V225.112ZM281.602 229.606C287.161 232.511 291.503 236.566 294.649 241.78L296.361 240.748C293.021 235.21 288.403 230.903 282.528 227.834L281.602 229.606ZM294.649 241.78C297.789 246.987 299.369 252.907 299.369 259.568H301.369C301.369 252.576 299.706 246.293 296.361 240.748L294.649 241.78ZM299.369 259.568C299.369 266.229 297.789 272.149 294.649 277.356L296.361 278.388C299.706 272.843 301.369 266.56 301.369 259.568H299.369ZM294.649 277.356C291.502 282.573 287.157 286.673 281.592 289.663L282.538 291.425C288.408 288.271 293.023 283.923 296.361 278.388L294.649 277.356ZM281.602 289.658C276.045 292.561 269.721 294.024 262.609 294.024V296.024C270.003 296.024 276.651 294.501 282.528 291.43L281.602 289.658ZM262.609 279.64C267.976 279.64 272.429 277.839 275.878 274.209L274.428 272.831C271.392 276.027 267.482 277.64 262.609 277.64V279.64ZM275.878 274.209C279.417 270.488 281.145 265.572 281.145 259.568H279.145C279.145 265.169 277.545 269.554 274.428 272.831L275.878 274.209ZM281.145 259.568C281.145 253.565 279.417 248.685 275.869 245.046L274.437 246.442C277.545 249.63 279.145 253.966 279.145 259.568H281.145ZM275.886 245.064C272.44 241.345 267.985 239.496 262.609 239.496V241.496C267.473 241.496 271.381 243.145 274.42 246.424L275.886 245.064ZM262.609 239.496C257.234 239.496 252.742 241.345 249.212 245.055L250.662 246.433C253.788 243.146 257.744 241.496 262.609 241.496V239.496ZM249.221 245.046C245.673 248.685 243.945 253.565 243.945 259.568H245.945C245.945 253.966 247.545 249.63 250.653 246.442L249.221 245.046ZM243.945 259.568C243.945 265.572 245.673 270.488 249.212 274.209L250.662 272.831C247.545 269.554 245.945 265.169 245.945 259.568H243.945ZM249.221 274.218C252.752 277.84 257.242 279.64 262.609 279.64V277.64C257.736 277.64 253.778 276.027 250.653 272.822L249.221 274.218ZM383.86 199.024H384.86V198.024H383.86V199.024ZM383.86 294V295H384.86V294H383.86ZM364.788 294H363.788V295H364.788V294ZM364.788 286.064H365.788V283.29L364.018 285.426L364.788 286.064ZM325.62 290.672L325.133 291.546L325.139 291.549L325.62 290.672ZM313.332 278.256L314.206 277.77L314.206 277.77L313.332 278.256ZM313.332 240.88L314.206 241.366L314.206 241.366L313.332 240.88ZM325.62 228.464L325.139 227.587L325.133 227.591L325.62 228.464ZM363.892 232.432L363.146 233.098L364.892 235.055V232.432H363.892ZM363.892 199.024V198.024H362.892V199.024H363.892ZM359.284 273.52L360 274.218L360.009 274.209L359.284 273.52ZM359.284 245.744L358.559 246.433L358.568 246.442L359.284 245.744ZM334.068 245.744L334.784 246.442L334.793 246.433L334.068 245.744ZM334.068 273.52L333.343 274.209L333.352 274.218L334.068 273.52ZM382.86 199.024V294H384.86V199.024H382.86ZM383.86 293H364.788V295H383.86V293ZM365.788 294V286.064H363.788V294H365.788ZM364.018 285.426C359.299 291.122 352.442 294.024 343.284 294.024V296.024C352.9 296.024 360.379 292.953 365.558 286.702L364.018 285.426ZM343.284 294.024C336.954 294.024 331.233 292.61 326.101 289.795L325.139 291.549C330.588 294.537 336.644 296.024 343.284 296.024V294.024ZM326.107 289.799C321.07 286.991 317.105 282.989 314.206 277.77L312.458 278.742C315.532 284.275 319.76 288.55 325.133 291.545L326.107 289.799ZM314.206 277.77C311.314 272.564 309.852 266.507 309.852 259.568H307.852C307.852 266.795 309.377 273.196 312.458 278.742L314.206 277.77ZM309.852 259.568C309.852 252.629 311.314 246.572 314.206 241.366L312.458 240.394C309.377 245.94 307.852 252.341 307.852 259.568H309.852ZM314.206 241.366C317.105 236.147 321.07 232.145 326.107 229.337L325.133 227.591C319.76 230.586 315.532 234.861 312.458 240.394L314.206 241.366ZM326.101 229.341C331.233 226.526 336.954 225.112 343.284 225.112V223.112C336.644 223.112 330.588 224.599 325.139 227.587L326.101 229.341ZM343.284 225.112C351.845 225.112 358.421 227.803 363.146 233.098L364.638 231.766C359.464 225.968 352.301 223.112 343.284 223.112V225.112ZM364.892 232.432V199.024H362.892V232.432H364.892ZM363.892 200.024H383.86V198.024H363.892V200.024ZM346.74 279.64C352.027 279.64 356.472 277.836 360 274.218L358.568 272.822C355.44 276.03 351.522 277.64 346.74 277.64V279.64ZM360.009 274.209C363.548 270.488 365.276 265.572 365.276 259.568H363.276C363.276 265.169 361.676 269.554 358.559 272.831L360.009 274.209ZM365.276 259.568C365.276 253.565 363.548 248.685 360 245.046L358.568 246.442C361.676 249.63 363.276 253.966 363.276 259.568H365.276ZM360.009 245.055C356.483 241.348 352.035 239.496 346.74 239.496V241.496C351.514 241.496 355.429 243.142 358.559 246.433L360.009 245.055ZM346.74 239.496C341.365 239.496 336.873 241.345 333.343 245.055L334.793 246.433C337.919 243.146 341.875 241.496 346.74 241.496V239.496ZM333.352 245.046C329.804 248.685 328.076 253.565 328.076 259.568H330.076C330.076 253.966 331.676 249.63 334.784 246.442L333.352 245.046ZM328.076 259.568C328.076 265.572 329.804 270.488 333.343 274.209L334.793 272.831C331.676 269.554 330.076 265.169 330.076 259.568H328.076ZM333.352 274.218C336.883 277.84 341.373 279.64 346.74 279.64V277.64C341.867 277.64 337.909 276.027 334.784 272.822L333.352 274.218ZM471.717 225.136H472.717V224.136H471.717V225.136ZM471.717 294V295H472.717V294H471.717ZM452.773 294H451.773V295H452.773V294ZM452.773 285.808H453.773V283.171L452.024 285.145L452.773 285.808ZM443.301 292.72L443.687 293.642L443.696 293.639L443.705 293.635L443.301 292.72ZM409.893 287.216L410.594 286.503L410.594 286.503L409.893 287.216ZM401.957 225.136V224.136H400.957V225.136H401.957ZM421.925 225.136H422.925V224.136H421.925V225.136ZM447.397 273.136L448.124 273.823L448.133 273.813L447.397 273.136ZM451.749 225.136V224.136H450.749V225.136H451.749ZM470.717 225.136V294H472.717V225.136H470.717ZM471.717 293H452.773V295H471.717V293ZM453.773 294V285.808H451.773V294H453.773ZM452.024 285.145C449.475 288.023 446.435 290.242 442.897 291.805L443.705 293.635C447.505 291.956 450.78 289.566 453.522 286.471L452.024 285.145ZM442.915 291.798C439.377 293.279 435.541 294.024 431.397 294.024V296.024C435.787 296.024 439.887 295.233 443.687 293.642L442.915 291.798ZM431.397 294.024C422.553 294.024 415.659 291.486 410.594 286.503L409.192 287.929C414.709 293.357 422.15 296.024 431.397 296.024V294.024ZM410.594 286.503C405.558 281.548 402.957 274.124 402.957 264.048H400.957C400.957 274.452 403.647 282.473 409.192 287.929L410.594 286.503ZM402.957 264.048V225.136H400.957V264.048H402.957ZM401.957 226.136H421.925V224.136H401.957V226.136ZM420.925 225.136V261.104H422.925V225.136H420.925ZM420.925 261.104C420.925 266.766 422.108 271.199 424.647 274.227C427.214 277.288 431.021 278.744 435.877 278.744V276.744C431.431 276.744 428.263 275.427 426.179 272.941C424.067 270.422 422.925 266.535 422.925 261.104H420.925ZM435.877 278.744C440.891 278.744 445.008 277.122 448.124 273.823L446.67 272.449C443.983 275.294 440.42 276.744 435.877 276.744V278.744ZM448.133 273.813C451.265 270.404 452.749 265.471 452.749 259.184H450.749C450.749 265.185 449.331 269.553 446.661 272.459L448.133 273.813ZM452.749 259.184V225.136H450.749V259.184H452.749ZM451.749 226.136H471.717V224.136H451.749V226.136ZM503.656 290.544L503.188 291.428L503.196 291.432L503.204 291.436L503.656 290.544ZM489.96 277.872L489.104 278.389L489.11 278.398L489.96 277.872ZM489.96 241.264L489.11 240.738L489.104 240.748L489.96 241.264ZM503.656 228.72L504.114 229.609L504.119 229.607L503.656 228.72ZM542.44 228.72L541.944 229.588L541.952 229.593L541.96 229.597L542.44 228.72ZM554.344 241.648L554.817 242.529L555.631 242.092L555.26 241.246L554.344 241.648ZM538.856 249.968L537.986 250.462L538.469 251.311L539.329 250.849L538.856 249.968ZM510.44 245.616L509.733 244.909L509.733 244.909L510.44 245.616ZM538.856 269.168L539.335 268.29L538.463 267.814L537.981 268.683L538.856 269.168ZM554.344 277.616L555.255 278.029L555.638 277.183L554.823 276.738L554.344 277.616ZM542.44 290.416L541.95 289.544L541.944 289.548L542.44 290.416ZM523.496 294.024C516.297 294.024 509.841 292.56 504.108 289.652L503.204 291.436C509.247 294.501 516.018 296.024 523.496 296.024V294.024ZM504.124 289.66C498.472 286.668 494.041 282.565 490.81 277.346L489.11 278.398C492.535 283.931 497.235 288.276 503.188 291.428L504.124 289.66ZM490.816 277.356C487.676 272.149 486.096 266.229 486.096 259.568H484.096C484.096 266.56 485.759 272.843 489.104 278.388L490.816 277.356ZM486.096 259.568C486.096 252.907 487.676 246.987 490.816 241.78L489.104 240.748C485.759 246.293 484.096 252.576 484.096 259.568H486.096ZM490.81 241.79C494.04 236.574 498.467 232.516 504.114 229.609L503.198 227.831C497.24 230.898 492.536 235.202 489.11 240.738L490.81 241.79ZM504.119 229.607C509.849 226.617 516.301 225.112 523.496 225.112V223.112C516.013 223.112 509.239 224.679 503.193 227.833L504.119 229.607ZM523.496 225.112C530.605 225.112 536.743 226.616 541.944 229.588L542.936 227.852C537.385 224.68 530.893 223.112 523.496 223.112V225.112ZM541.96 229.597C547.23 232.479 551.044 236.623 553.428 242.05L555.26 241.246C552.695 235.409 548.572 230.934 542.92 227.843L541.96 229.597ZM553.871 240.767L538.383 249.087L539.329 250.849L554.817 242.529L553.871 240.767ZM539.726 249.474C535.981 242.876 530.502 239.496 523.368 239.496V241.496C529.717 241.496 534.563 244.43 537.986 250.462L539.726 249.474ZM523.368 239.496C517.92 239.496 513.349 241.292 509.733 244.909L511.147 246.323C514.357 243.113 518.405 241.496 523.368 241.496V239.496ZM509.733 244.909C506.092 248.55 504.32 253.477 504.32 259.568H506.32C506.32 253.883 507.961 249.509 511.147 246.323L509.733 244.909ZM504.32 259.568C504.32 265.659 506.092 270.586 509.733 274.227L511.147 272.813C507.961 269.627 506.32 265.253 506.32 259.568H504.32ZM509.733 274.227C513.349 277.844 517.92 279.64 523.368 279.64V277.64C518.405 277.64 514.357 276.023 511.147 272.813L509.733 274.227ZM523.368 279.64C526.941 279.64 530.124 278.812 532.882 277.125C535.637 275.44 537.914 272.932 539.731 269.653L537.981 268.683C536.3 271.719 534.246 273.946 531.838 275.419C529.433 276.89 526.621 277.64 523.368 277.64V279.64ZM538.377 270.046L553.865 278.494L554.823 276.738L539.335 268.29L538.377 270.046ZM553.433 277.203C551.05 282.462 547.235 286.572 541.95 289.544L542.93 291.288C548.568 288.116 552.688 283.693 555.255 278.029L553.433 277.203ZM541.944 289.548C536.743 292.52 530.605 294.024 523.496 294.024V296.024C530.893 296.024 537.385 294.456 542.936 291.284L541.944 289.548ZM611.257 290.672L611.851 291.476L612.462 291.025L612.191 290.315L611.257 290.672ZM603.961 294L604.197 294.972L604.207 294.969L604.217 294.967L603.961 294ZM575.929 288.752L575.243 289.48L575.25 289.486L575.929 288.752ZM569.273 242.032H570.273V241.032H569.273V242.032ZM558.649 242.032H557.649V243.032H558.649V242.032ZM558.649 226.672V225.672H557.649V226.672H558.649ZM569.273 226.672V227.672H570.273V226.672H569.273ZM569.273 209.904V208.904H568.273V209.904H569.273ZM589.241 209.904H590.241V208.904H589.241V209.904ZM589.241 226.672H588.241V227.672H589.241V226.672ZM606.393 226.672H607.393V225.672H606.393V226.672ZM606.393 242.032V243.032H607.393V242.032H606.393ZM589.241 242.032V241.032H588.241V242.032H589.241ZM591.417 276.848L590.672 277.515L590.69 277.535L590.71 277.555L591.417 276.848ZM605.881 276.592L606.815 276.235L606.336 274.98L605.271 275.799L605.881 276.592ZM610.663 289.868C608.822 291.228 606.512 292.29 603.705 293.033L604.217 294.967C607.213 294.174 609.767 293.017 611.851 291.476L610.663 289.868ZM603.725 293.028C600.993 293.691 598.086 294.024 595.001 294.024V296.024C598.231 296.024 601.297 295.675 604.197 294.972L603.725 293.028ZM595.001 294.024C586.976 294.024 580.892 291.978 576.608 288.018L575.25 289.486C580.012 293.888 586.642 296.024 595.001 296.024V294.024ZM576.615 288.024C572.438 284.088 570.273 278.246 570.273 270.32H568.273C568.273 278.607 570.545 285.053 575.243 289.48L576.615 288.024ZM570.273 270.32V242.032H568.273V270.32H570.273ZM569.273 241.032H558.649V243.032H569.273V241.032ZM559.649 242.032V226.672H557.649V242.032H559.649ZM558.649 227.672H569.273V225.672H558.649V227.672ZM570.273 226.672V209.904H568.273V226.672H570.273ZM569.273 210.904H589.241V208.904H569.273V210.904ZM588.241 209.904V226.672H590.241V209.904H588.241ZM589.241 227.672H606.393V225.672H589.241V227.672ZM605.393 226.672V242.032H607.393V226.672H605.393ZM606.393 241.032H589.241V243.032H606.393V241.032ZM588.241 242.032V270.064H590.241V242.032H588.241ZM588.241 270.064C588.241 273.128 589.009 275.656 590.672 277.515L592.162 276.181C590.924 274.797 590.241 272.803 590.241 270.064H588.241ZM590.71 277.555C592.479 279.324 594.893 280.152 597.817 280.152V278.152C595.28 278.152 593.427 277.444 592.124 276.141L590.71 277.555ZM597.817 280.152C601.165 280.152 604.075 279.243 606.491 277.385L605.271 275.799C603.25 277.355 600.783 278.152 597.817 278.152V280.152ZM604.947 276.949L610.323 291.029L612.191 290.315L606.815 276.235L604.947 276.949ZM660.124 204.4V203.4H659.124V204.4H660.124ZM680.86 204.4H681.86V203.4H680.86V204.4ZM680.86 277.104H679.86V278.104H680.86V277.104ZM725.788 277.104H726.788V276.104H725.788V277.104ZM725.788 294V295H726.788V294H725.788ZM660.124 294H659.124V295H660.124V294ZM660.124 205.4H680.86V203.4H660.124V205.4ZM679.86 204.4V277.104H681.86V204.4H679.86ZM680.86 278.104H725.788V276.104H680.86V278.104ZM724.788 277.104V294H726.788V277.104H724.788ZM725.788 293H660.124V295H725.788V293ZM661.124 294V204.4H659.124V294H661.124ZM789.068 231.792L788.401 232.537L788.407 232.542L789.068 231.792ZM797.644 294V295H798.644V294H797.644ZM778.956 294H777.956V295H778.956V294ZM778.956 285.424H779.956V281.743L778.093 284.918L778.956 285.424ZM744.14 292.336L743.717 293.242L743.725 293.246L744.14 292.336ZM735.308 284.912L736.147 284.368L736.147 284.368L735.308 284.912ZM739.404 259.056L738.802 258.258L738.795 258.263L739.404 259.056ZM777.676 253.552V254.552H778.676V253.552H777.676ZM773.708 243.568L773.038 244.31L773.044 244.316L773.051 244.322L773.708 243.568ZM750.924 241.776L751.226 242.729L751.233 242.727L751.24 242.725L750.924 241.776ZM741.964 246.384L741.075 246.841L741.631 247.924L742.585 247.167L741.964 246.384ZM734.796 232.432L734.22 231.615L733.509 232.115L733.907 232.889L734.796 232.432ZM748.236 226.288L747.972 225.324L747.968 225.325L748.236 226.288ZM772.044 279.28L772.546 280.145L772.556 280.139L772.567 280.133L772.044 279.28ZM777.676 272.24L778.617 272.58L778.676 272.415V272.24H777.676ZM777.676 265.2H778.676V264.2H777.676V265.2ZM754.636 279.408L754.02 280.196L754.038 280.21L754.058 280.224L754.636 279.408ZM764.492 225.112C775.009 225.112 782.928 227.636 788.401 232.537L789.735 231.047C783.774 225.708 775.309 223.112 764.492 223.112V225.112ZM788.407 232.542C793.842 237.328 796.644 244.647 796.644 254.704H798.644C798.644 244.281 795.729 236.325 789.729 231.042L788.407 232.542ZM796.644 254.704V294H798.644V254.704H796.644ZM797.644 293H778.956V295H797.644V293ZM779.956 294V285.424H777.956V294H779.956ZM778.093 284.918C774.584 290.901 768 294.024 757.964 294.024V296.024C768.408 296.024 775.819 292.747 779.819 285.93L778.093 284.918ZM757.964 294.024C752.785 294.024 748.324 293.147 744.555 291.426L743.725 293.246C747.806 295.109 752.562 296.024 757.964 296.024V294.024ZM744.563 291.43C740.871 289.707 738.08 287.349 736.147 284.368L734.469 285.456C736.632 288.79 739.729 291.381 743.717 293.242L744.563 291.43ZM736.147 284.368C734.211 281.383 733.236 277.991 733.236 274.16H731.236C731.236 278.351 732.309 282.126 734.469 285.456L736.147 284.368ZM733.236 274.16C733.236 268.048 735.498 263.316 740.013 259.849L738.795 258.263C733.753 262.135 731.236 267.472 731.236 274.16H733.236ZM740.006 259.854C744.616 256.377 751.822 254.552 761.804 254.552V252.552C751.647 252.552 743.92 254.396 738.802 258.258L740.006 259.854ZM761.804 254.552H777.676V252.552H761.804V254.552ZM778.676 253.552C778.676 248.986 777.279 245.352 774.365 242.814L773.051 244.322C775.427 246.392 776.676 249.414 776.676 253.552H778.676ZM774.378 242.826C771.478 240.206 767.225 238.984 761.804 238.984V240.984C766.964 240.984 770.648 242.151 773.038 244.31L774.378 242.826ZM761.804 238.984C758.024 238.984 754.291 239.6 750.608 240.827L751.24 242.725C754.725 241.563 758.245 240.984 761.804 240.984V238.984ZM750.622 240.823C747.026 241.963 743.927 243.551 741.343 245.601L742.585 247.167C744.951 245.291 747.825 243.808 751.226 242.729L750.622 240.823ZM742.853 245.927L735.685 231.975L733.907 232.889L741.075 246.841L742.853 245.927ZM735.372 233.249C739.018 230.68 743.39 228.677 748.504 227.251L747.968 225.325C742.671 226.801 738.083 228.893 734.22 231.615L735.372 233.249ZM748.5 227.252C753.704 225.826 759.034 225.112 764.492 225.112V223.112C758.857 223.112 753.349 223.849 747.972 225.324L748.5 227.252ZM762.956 282.584C766.525 282.584 769.731 281.779 772.546 280.145L771.542 278.415C769.066 279.853 766.214 280.584 762.956 280.584V282.584ZM772.567 280.133C775.416 278.386 777.435 275.853 778.617 272.58L776.735 271.9C775.699 274.771 773.963 276.931 771.521 278.427L772.567 280.133ZM778.676 272.24V265.2H776.676V272.24H778.676ZM777.676 264.2H763.98V266.2H777.676V264.2ZM763.98 264.2C759.806 264.2 756.503 264.879 754.215 266.38C751.855 267.929 750.692 270.278 750.692 273.264H752.692C752.692 270.874 753.577 269.191 755.313 268.052C757.121 266.865 759.962 266.2 763.98 266.2V264.2ZM750.692 273.264C750.692 276.122 751.807 278.464 754.02 280.196L755.252 278.62C753.539 277.28 752.692 275.526 752.692 273.264H750.692ZM754.058 280.224C756.33 281.833 759.329 282.584 762.956 282.584V280.584C759.585 280.584 757.038 279.884 755.214 278.592L754.058 280.224ZM873.828 228.592L873.33 229.459L873.339 229.464L873.347 229.469L873.828 228.592ZM886.244 241.008L885.37 241.494L885.373 241.5L886.244 241.008ZM886.244 278.256L887.115 278.748L887.118 278.742L886.244 278.256ZM873.828 290.672L874.315 291.545L874.32 291.543L873.828 290.672ZM834.788 286.064L835.558 285.426L833.788 283.29V286.064H834.788ZM834.788 294V295H835.788V294H834.788ZM815.716 294H814.716V295H815.716V294ZM815.716 199.024V198.024H814.716V199.024H815.716ZM835.684 199.024H836.684V198.024H835.684V199.024ZM835.684 232.432H834.684V235.022L836.424 233.104L835.684 232.432ZM865.508 273.52L864.783 272.831L864.783 272.831L865.508 273.52ZM865.508 245.744L864.775 246.424L864.783 246.433L864.792 246.442L865.508 245.744ZM840.292 245.744L839.567 245.055L839.567 245.055L840.292 245.744ZM840.292 273.52L839.559 274.2L839.567 274.209L839.576 274.218L840.292 273.52ZM856.42 225.112C862.657 225.112 868.287 226.565 873.33 229.459L874.326 227.725C868.959 224.645 862.983 223.112 856.42 223.112V225.112ZM873.347 229.469C878.469 232.278 882.473 236.279 885.37 241.494L887.118 240.522C884.042 234.985 879.768 230.709 874.309 227.715L873.347 229.469ZM885.373 241.5C888.262 246.617 889.724 252.629 889.724 259.568H891.724C891.724 252.342 890.199 245.98 887.115 240.516L885.373 241.5ZM889.724 259.568C889.724 266.507 888.262 272.564 885.37 277.77L887.118 278.742C890.199 273.196 891.724 266.795 891.724 259.568H889.724ZM885.373 277.764C882.476 282.896 878.468 286.904 873.336 289.801L874.32 291.543C879.769 288.467 884.039 284.197 887.115 278.748L885.373 277.764ZM873.341 289.799C868.296 292.611 862.663 294.024 856.42 294.024V296.024C862.977 296.024 868.95 294.536 874.315 291.545L873.341 289.799ZM856.42 294.024C847.173 294.024 840.276 291.12 835.558 285.426L834.018 286.702C839.199 292.955 846.723 296.024 856.42 296.024V294.024ZM833.788 286.064V294H835.788V286.064H833.788ZM834.788 293H815.716V295H834.788V293ZM816.716 294V199.024H814.716V294H816.716ZM815.716 200.024H835.684V198.024H815.716V200.024ZM834.684 199.024V232.432H836.684V199.024H834.684ZM836.424 233.104C841.236 227.803 847.859 225.112 856.42 225.112V223.112C847.402 223.112 840.201 225.968 834.944 231.76L836.424 233.104ZM852.964 279.64C858.331 279.64 862.784 277.839 866.233 274.209L864.783 272.831C861.747 276.027 857.837 277.64 852.964 277.64V279.64ZM866.233 274.209C869.772 270.488 871.5 265.572 871.5 259.568H869.5C869.5 265.169 867.9 269.554 864.783 272.831L866.233 274.209ZM871.5 259.568C871.5 253.565 869.772 248.685 866.224 245.046L864.792 246.442C867.9 249.63 869.5 253.966 869.5 259.568H871.5ZM866.241 245.064C862.795 241.345 858.34 239.496 852.964 239.496V241.496C857.828 241.496 861.736 243.145 864.775 246.424L866.241 245.064ZM852.964 239.496C847.589 239.496 843.097 241.345 839.567 245.055L841.017 246.433C844.143 243.146 848.099 241.496 852.964 241.496V239.496ZM839.567 245.055C836.109 248.695 834.428 253.572 834.428 259.568H836.428C836.428 253.959 837.99 249.619 841.017 246.433L839.567 245.055ZM834.428 259.568C834.428 265.565 836.109 270.478 839.559 274.2L841.025 272.84C837.99 269.565 836.428 265.176 836.428 259.568H834.428ZM839.576 274.218C843.107 277.84 847.597 279.64 852.964 279.64V277.64C848.091 277.64 844.133 276.027 841.008 272.822L839.576 274.218Z" fill="black"/>
</mask>
<g mask="url(#mask0_411_46)">
<rect x="33.5" y="147.5" width="902" height="155" rx="25.5" fill="url(#paint1_linear_411_46)"/>
<rect x="33.5" y="147.5" width="902" height="155" rx="25.5" fill="url(#paint2_linear_411_46)"/>
<rect x="33.5" y="147.5" width="902" height="155" rx="25.5" stroke="black"/>
</g>
<g filter="url(#filter1_d_411_46)">
<path d="M33.3774 50.2609L34.8774 49.3835C42.6745 44.8226 52.3255 44.8226 60.1226 49.3835L61.6226 50.2609C69.2885 54.745 74 62.9593 74 71.8403V74.1038C74 82.6746 69.6095 90.6479 62.3666 95.2304L60.8666 96.1794C52.7038 101.344 42.2962 101.344 34.1334 96.1794L32.6334 95.2304C25.3905 90.6479 21 82.6746 21 74.1038V71.8403C21 62.9593 25.7115 54.745 33.3774 50.2609Z" fill="white"/>
<path d="M33.3774 50.2609L34.8774 49.3835C42.6745 44.8226 52.3255 44.8226 60.1226 49.3835L61.6226 50.2609C69.2885 54.745 74 62.9593 74 71.8403V74.1038C74 82.6746 69.6095 90.6479 62.3666 95.2304L60.8666 96.1794C52.7038 101.344 42.2962 101.344 34.1334 96.1794L32.6334 95.2304C25.3905 90.6479 21 82.6746 21 74.1038V71.8403C21 62.9593 25.7115 54.745 33.3774 50.2609Z" stroke="black" stroke-width="2"/>
</g>
<path d="M43.9208 54.0404L44.0133 54.0096C45.9782 53.3546 48.0708 53.1772 50.1179 53.4922L50.5901 53.5648C52.4758 53.8549 54.256 54.622 55.762 55.7933C57.1923 56.9058 58.3387 58.365 59.0885 60.0146C59.9569 61.9251 60.2873 64.0576 60.027 66.1399L59.9006 67.1513C59.5923 69.6176 58.6744 71.9682 57.2297 73.9907L54.9258 77.2162C54.6179 77.6473 54.3938 78.1326 54.2653 78.6466C53.7953 80.5267 52.106 81.8456 50.1681 81.8456H43.4065C42.0982 81.8456 41.0377 80.785 41.0377 79.4767C41.0377 79.0742 40.9351 78.6782 40.7396 78.3263L39.1495 75.4642C38.7519 74.7486 38.295 74.0675 37.7836 73.4283L36.742 72.1262C35.3394 70.3729 34.5752 68.1945 34.5752 65.9491C34.5752 63.997 35.153 62.0885 36.2359 60.4642L36.9886 59.3352C38.6463 56.8486 41.0856 54.9854 43.9208 54.0404Z" fill="#FFE665"/>
<path d="M40.043 86.8167L54.9564 86.8167" stroke="black" stroke-width="3"/>
<path d="M40.043 90.7937L54.9564 90.7937" stroke="black" stroke-width="3"/>
<ellipse cx="50.3607" cy="60.6915" rx="1.04532" ry="1.02482" fill="black"/>
<ellipse cx="50.3605" cy="60.6915" rx="0.522659" ry="0.51241" fill="#E5E5E5"/>
<ellipse cx="46.7016" cy="64.7908" rx="1.04532" ry="1.02482" fill="black"/>
<ellipse cx="46.7014" cy="64.7909" rx="0.522659" ry="0.51241" fill="#E5E5E5"/>
<ellipse cx="48.2699" cy="70.4272" rx="1.04532" ry="1.02482" fill="black"/>
<ellipse cx="48.2697" cy="70.4272" rx="0.522659" ry="0.51241" fill="#E5E5E5"/>
<ellipse cx="43.0424" cy="74.0142" rx="1.04532" ry="1.02482" fill="black"/>
<ellipse cx="43.0422" cy="74.0141" rx="0.522659" ry="0.51241" fill="#E5E5E5"/>
<path d="M35.0723 64.7907H41.8668M45.3948 64.7907H41.8668M41.8668 64.7907V64.7907C41.8668 62.5267 43.7021 60.6914 45.9661 60.6914H48.2694M35.0723 68.3776H40.9932C42.1252 68.3776 43.0428 69.2952 43.0428 70.4272V70.4272M43.0428 72.4768V70.4272M43.0428 70.4272H46.7014" stroke="black"/>
<path d="M47.5778 53.013C46.1233 53.013 45.2672 53.1974 43.8533 53.5272C42.4983 53.8433 41.8368 54.3467 40.6608 55.07C39.0446 56.064 38.1395 56.7147 36.9363 58.1555C35.8841 59.4155 35.3649 60.2283 34.808 61.7553C34.0451 63.8474 33.9029 65.2234 34.2759 67.4121C34.5644 69.1052 35.1139 69.9747 35.8721 71.5262C36.5876 72.9902 37.0992 73.7611 38.0004 75.126C38.5936 76.0242 39.4672 77.1839 40.0496 77.9408C40.4468 78.4571 40.705 79.0671 40.7885 79.7131V79.7131C41.0198 81.5013 42.5426 82.8398 44.3456 82.8398H53.9627" stroke="black" stroke-width="3"/>
<path d="M47.4222 53.0129C48.8767 53.0129 49.7328 53.1973 51.1467 53.5272C52.5017 53.8433 53.1632 54.3466 54.3392 55.0699C55.9554 56.064 56.8605 56.7146 58.0637 58.1555C59.1159 59.4154 59.6351 60.2282 60.192 61.7553C60.9549 63.8473 61.0971 65.2233 60.7241 67.4121C60.4356 69.1051 59.8861 69.9746 59.1279 71.5261C58.4124 72.9901 57.9008 73.7611 56.9996 75.1259C56.4064 76.0242 55.5328 77.1839 54.9504 77.9407C54.5532 78.457 54.295 79.067 54.2115 79.7131V79.7131C53.9802 81.5012 52.4574 82.8397 50.6544 82.8397H41.0373" stroke="black" stroke-width="3"/>
<defs>
<filter id="filter0_bd_411_46" x="-24" y="-26" width="1012" height="655" filterUnits="userSpaceOnUse" color-interpolation-filters="sRGB">
<feFlood flood-opacity="0" result="BackgroundImageFix"/>
<feGaussianBlur in="BackgroundImage" stdDeviation="15"/>
<feComposite in2="SourceAlpha" operator="in" result="effect1_backgroundBlur_411_46"/>
<feColorMatrix in="SourceAlpha" type="matrix" values="0 0 0 0 0 0 0 0 0 0 0 0 0 0 0 0 0 0 127 0" result="hardAlpha"/>
<feMorphology radius="4" operator="dilate" in="SourceAlpha" result="effect2_dropShadow_411_46"/>
<feOffset dx="2" dy="4"/>
<feGaussianBlur stdDeviation="2"/>
<feComposite in2="hardAlpha" operator="out"/>
<feColorMatrix type="matrix" values="0 0 0 0 0 0 0 0 0 0 0 0 0 0 0 0 0 0 0.75 0"/>
<feBlend mode="normal" in2="effect1_backgroundBlur_411_46" result="effect2_dropShadow_411_46"/>
<feBlend mode="normal" in="SourceGraphic" in2="effect2_dropShadow_411_46" result="shape"/>
</filter>
<filter id="filter1_d_411_46" x="13" y="40.9629" width="75" height="76.09" filterUnits="userSpaceOnUse" color-interpolation-filters="sRGB">
<feFlood flood-opacity="0" result="BackgroundImageFix"/>
<feColorMatrix in="SourceAlpha" type="matrix" values="0 0 0 0 0 0 0 0 0 0 0 0 0 0 0 0 0 0 127 0" result="hardAlpha"/>
<feOffset dx="3" dy="6"/>
<feGaussianBlur stdDeviation="5"/>
<feComposite in2="hardAlpha" operator="out"/>
<feColorMatrix type="matrix" values="0 0 0 0 0 0 0 0 0 0 0 0 0 0 0 0 0 0 0.25 0"/>
<feBlend mode="normal" in2="BackgroundImageFix" result="effect1_dropShadow_411_46"/>
<feBlend mode="normal" in="SourceGraphic" in2="effect1_dropShadow_411_46" result="shape"/>
</filter>
<linearGradient id="paint0_linear_411_46" x1="312" y1="4" x2="482" y2="599" gradientUnits="userSpaceOnUse">
<stop offset="0.0174404" stop-color="white" stop-opacity="0.6"/>
<stop offset="1" stop-color="white" stop-opacity="0.2"/>
</linearGradient>
<linearGradient id="paint1_linear_411_46" x1="34" y1="148" x2="927.147" y2="338.765" gradientUnits="userSpaceOnUse">
<stop stop-color="#FFE0A3"/>
<stop offset="0.291667" stop-color="#F7C033"/>
<stop offset="0.697917" stop-color="#F6C033"/>
<stop offset="1" stop-color="#FFE0A3"/>
</linearGradient>
<linearGradient id="paint2_linear_411_46" x1="34" y1="148" x2="927.147" y2="338.765" gradientUnits="userSpaceOnUse">
<stop stop-color="#FF4D41"/>
<stop offset="0.510417" stop-color="#F8C025"/>
<stop offset="1" stop-color="#FF4D41"/>
</linearGradient>
</defs>
</svg>
