<svg width="834" height="634" viewBox="0 0 834 634" fill="none" xmlns="http://www.w3.org/2000/svg">
<g clip-path="url(#clip0_498_450)">
<path d="M770.925 575.462C743.625 596.252 710.365 617.312 677.665 627.242C668.238 630.19 658.511 632.072 648.665 632.852C639.46 633.592 630.195 632.873 621.215 630.722C597.615 624.852 575.725 614.572 554.545 602.562C547.625 598.632 540.785 594.522 533.985 590.322C522.885 583.462 511.895 576.362 500.875 569.432C499.225 568.382 497.585 567.352 495.935 566.332H495.925C493.265 564.662 490.598 563.016 487.925 561.392C487.455 561.102 486.985 560.822 486.505 560.532C481.455 557.472 476.318 554.482 471.095 551.562C470.455 551.212 469.815 550.852 469.175 550.502C459.069 544.897 448.682 539.813 438.055 535.272C431.075 532.332 424.005 529.682 416.865 527.422H416.855C414.125 526.562 411.385 525.752 408.635 525.012C400.389 522.75 391.985 521.105 383.495 520.092C371.795 518.676 359.961 518.77 348.285 520.372C347.495 520.482 346.715 520.592 345.925 520.722C314.325 525.782 285.485 542.842 253.745 546.862C252.715 546.992 251.695 547.112 250.665 547.202C250.225 547.242 249.785 547.292 249.345 547.322C240.121 548.112 230.838 547.884 221.665 546.642C196.035 543.262 171.075 532.772 148.605 519.552C96.0747 488.642 53.4747 441.132 27.5747 386.112C23.1271 376.683 19.1784 367.026 15.7448 357.182C6.14467 329.885 0.857879 301.258 0.0747132 272.332C-2.35529 171.972 54.6747 71.2822 144.215 25.8922C233.765 -19.4978 351.565 -4.4878 423.785 65.2422C467.595 107.542 492.945 164.862 525.915 216.072C558.885 267.272 605.745 316.182 666.185 323.642C696.975 327.442 729.195 320.092 758.705 329.652C775.045 334.952 788.985 345.092 800.215 358.012C807.765 366.78 814.083 376.536 818.995 387.012C822.594 394.586 825.516 402.463 827.725 410.552C828.135 412.042 828.515 413.532 828.885 415.022C843.585 475.062 820.095 538.002 770.925 575.462Z" fill="#F2F2F2"/>
<path d="M279.165 466.772H185.165C171.082 466.772 159.665 478.189 159.665 492.272V492.272C159.665 506.356 171.082 517.772 185.165 517.772H279.165C293.248 517.772 304.665 506.356 304.665 492.272C304.665 478.189 293.248 466.772 279.165 466.772Z" fill="#3F3D56"/>
<path d="M250.665 504.772V547.202C241.009 548.137 231.278 547.949 221.665 546.642V504.772H250.665Z" fill="#3F3D56"/>
<path d="M348.285 520.372C347.495 520.482 346.715 520.592 345.925 520.722C314.325 525.782 285.485 542.842 253.745 546.862C252.715 546.992 251.695 547.112 250.665 547.202C250.225 547.242 249.785 547.292 249.345 547.322C241.595 539.732 233.845 531.652 226.565 523.282C222.615 518.752 218.795 514.132 215.205 509.452C205.885 497.372 197.985 484.952 192.765 472.752C193.295 466.902 189.655 453.372 187.915 443.012L187.905 443.002C187.165 438.652 186.765 434.872 187.135 432.442C189.255 418.422 200.705 420.032 204.225 406.292C207.4 403.657 210.781 401.279 214.335 399.182C214.925 398.832 215.525 398.482 216.145 398.132L254.345 371.732L268.945 386.052L291.165 407.852L315.245 431.462L294.805 452.112C294.805 452.112 311.885 471.802 331.855 498.052C337.215 505.102 342.785 512.632 348.285 520.372Z" fill="#2F2E41"/>
<path d="M677.665 504.772V627.242C668.238 630.19 658.511 632.072 648.665 632.852V504.772H677.665Z" fill="#3F3D56"/>
<path d="M715.165 494.772H621.165C607.082 494.772 595.665 506.189 595.665 520.272V520.272C595.665 534.356 607.082 545.772 621.165 545.772H715.165C729.248 545.772 740.665 534.356 740.665 520.272C740.665 506.189 729.248 494.772 715.165 494.772Z" fill="#3F3D56"/>
<path d="M486.505 560.532C481.455 557.472 476.318 554.482 471.095 551.562C470.455 551.212 469.815 550.852 469.175 550.502L472.615 549.032L481.895 545.042L481.985 545.002L482.085 545.342L486.505 560.532Z" fill="#FFB6B6"/>
<path d="M500.875 569.432C499.225 568.382 497.585 567.352 495.935 566.332H495.925C493.265 564.662 490.598 563.015 487.925 561.392C487.455 561.102 486.985 560.822 486.505 560.532C481.455 557.472 476.318 554.482 471.095 551.562C470.455 551.212 469.815 550.852 469.175 550.502C459.069 544.896 448.682 539.813 438.055 535.272C431.075 532.332 424.005 529.682 416.865 527.422H416.855L411.245 518.032L385.995 475.742L380.445 466.452C380.445 466.452 361.515 472.052 334.725 477.422C324.975 479.382 314.195 481.302 302.885 482.922C290.795 484.642 278.115 486.012 265.515 486.672C259.505 486.992 253.515 487.152 247.615 487.102C232.365 487.002 217.715 485.572 204.885 482.172C200.605 478.152 187.705 472.682 178.465 467.672H178.455C174.575 465.572 171.355 463.562 169.665 461.772C159.925 451.472 168.245 443.442 159.585 432.202C159.468 428.078 159.679 423.952 160.215 419.862C160.305 419.182 160.395 418.492 160.505 417.792L163.235 371.432L183.515 368.752L214.375 364.672L247.805 360.252L251.485 389.072C251.485 389.072 277.515 387.752 310.495 388.192C363.465 388.912 434.345 394.192 443.945 416.852C444.845 418.982 445.745 421.132 446.645 423.282C448.785 428.422 450.905 433.589 453.005 438.782C460.615 457.582 467.875 476.562 474.505 494.502C478.625 505.662 482.505 516.422 486.075 526.492C488.945 534.592 491.605 542.252 494.035 549.302C496.255 555.742 498.265 561.672 500.055 566.992C500.335 567.822 500.605 568.642 500.875 569.432Z" fill="#2F2E41"/>
<path d="M314.319 288.545L250.264 234.143L291.939 191.966L321.014 239.589L428.788 260.956C432.028 258.517 435.909 257.074 439.955 256.802C444.002 256.531 448.04 257.442 451.578 259.426C455.115 261.41 457.999 264.38 459.878 267.974C461.757 271.569 462.549 275.632 462.158 279.669C461.768 283.706 460.211 287.542 457.677 290.71C455.144 293.877 451.744 296.239 447.892 297.507C444.039 298.776 439.901 298.896 435.982 297.853C432.062 296.81 428.531 294.65 425.818 291.635L314.319 288.545Z" fill="#A0616A"/>
<path d="M193.653 162.647C186.25 186.729 256.753 244.167 256.753 244.167C257.536 238.385 297.508 288.24 300.228 283.725C307.957 270.893 316.462 239.173 325.385 235.119C330.488 232.801 301.214 200.576 301.214 200.576C301.214 200.576 286.281 180.82 266.565 155.781C261.123 148.599 253.951 142.911 245.719 139.246C237.486 135.581 228.461 134.058 219.481 134.82C219.481 134.82 201.056 138.564 193.653 162.647Z" fill="#3F3D56"/>
<path d="M224.825 109.333C248.752 109.333 268.149 89.9363 268.149 66.0091C268.149 42.0819 248.752 22.6851 224.825 22.6851C200.898 22.6851 181.501 42.0819 181.501 66.0091C181.501 89.9363 200.898 109.333 224.825 109.333Z" fill="#A0616A"/>
<path d="M246.487 137.967C255.821 143.516 261.404 153.712 264.609 164.086C270.543 183.293 274.115 203.152 275.246 223.223L278.631 283.313L320.557 411.26C284.221 442.006 147.638 418.247 147.638 418.247C147.638 418.247 143.446 416.85 147.638 412.657C151.831 408.464 155.913 412.179 151.72 407.986C147.528 403.794 150.418 408.465 151.815 404.272C153.213 400.079 151.815 402.874 150.418 401.477C149.02 400.079 161.237 387.501 161.237 387.501L150.057 314.058L136.081 165.918C152.852 144.955 186.58 132.597 186.58 132.597L195.294 116.911L238.869 120.397L246.487 137.967Z" fill="#3F3D56"/>
<path d="M260.539 42.9915C263.906 45.503 266.401 49.0073 267.672 53.011C268.16 46.468 268.191 39.8989 267.765 33.3516C267.254 28.7508 264.015 27.7159 260.264 26.5167C256.877 25.4333 253.046 24.2095 252.016 19.7432C238.397 6.49472 214.69 7.16278 198.465 11.784C189.538 14.327 184.401 17.5943 183.941 19.5082L183.846 19.9022L183.483 20.0835C176.602 23.5243 175.262 34.3898 175.351 42.8987C175.518 58.9301 181.054 77.1377 184.172 78.6168C184.337 78.6951 184.379 78.6645 184.45 78.6049C189.145 74.8526 194.874 78.8901 197.391 81.0849C198.876 71.1211 203.657 61.9423 210.97 55.0144C218.284 48.0865 227.708 43.8092 237.737 42.8656C241.013 42.549 244.262 42.0042 247.462 41.235C249.085 40.8152 250.753 40.5962 252.429 40.5831C255.315 40.5393 258.145 41.3797 260.539 42.9915V42.9915Z" fill="#2F2E41"/>
<path d="M205.949 353.817L192.696 347.03C191.986 346.524 191.482 345.779 191.275 344.932C191.069 344.085 191.174 343.192 191.571 342.416C191.969 341.64 192.632 341.033 193.44 340.705C194.248 340.378 195.147 340.352 195.973 340.633L209.225 347.42C209.935 347.926 210.44 348.67 210.646 349.518C210.853 350.365 210.748 351.258 210.35 352.034C209.953 352.81 209.29 353.417 208.482 353.744C207.673 354.072 206.775 354.098 205.949 353.817L205.949 353.817Z" fill="#6C63FF"/>
<path d="M161.346 335.633L139.545 254.471L197.804 243.442L194.671 299.151L271.218 377.97C275.27 377.804 279.283 378.821 282.768 380.897C286.252 382.973 289.057 386.017 290.841 389.66C292.625 393.302 293.311 397.385 292.814 401.41C292.318 405.436 290.661 409.23 288.046 412.33C285.431 415.43 281.97 417.702 278.086 418.869C274.201 420.036 270.061 420.048 266.171 418.902C262.28 417.757 258.806 415.505 256.173 412.42C253.54 409.335 251.862 405.55 251.343 401.528L161.346 335.633Z" fill="#A0616A"/>
<path d="M133.584 163.471C113.809 179.083 139.19 266.406 139.19 266.406C143.12 262.094 147.686 325.831 152.489 323.661C166.141 317.493 191.162 296.223 200.808 297.957C206.325 298.948 200.545 255.797 200.545 255.797C200.545 255.797 199.482 231.056 197.484 199.249C197.086 190.247 194.417 181.491 189.725 173.798C185.033 166.104 178.47 159.723 170.648 155.248C170.648 155.248 153.359 147.86 133.584 163.471Z" fill="#3F3D56"/>
<path d="M818.995 387.012L27.5751 386.112C23.1275 376.683 19.1787 367.026 15.7451 357.182L800.215 358.012C807.765 366.78 814.083 376.536 818.995 387.012V387.012Z" fill="#3F3D56"/>
<path d="M566.924 596.832C562.834 598.812 558.708 600.722 554.544 602.562C547.624 598.632 540.784 594.522 533.984 590.322L559.204 579.242L566.924 596.832Z" fill="#FFB6B6"/>
<path d="M750.805 459.032C746.705 464.532 742.475 469.922 738.115 475.202C734.095 480.072 729.968 484.849 725.735 489.532C723.985 491.472 722.215 493.403 720.405 495.312C717.075 498.882 713.671 502.392 710.195 505.842C703.935 507.812 691.255 511.282 677.665 514.522C667.775 516.872 657.405 519.102 648.665 520.522C643.772 521.401 638.823 521.929 633.855 522.102C627.955 522.152 621.965 521.992 615.955 521.672C609.175 521.312 602.385 520.752 595.675 520.032C578.225 518.202 561.325 515.352 546.745 512.422C541.405 511.362 536.385 510.282 531.765 509.232C523.015 507.262 515.695 505.422 510.395 504.022C504.425 502.462 501.025 501.452 501.025 501.452L486.075 526.492L478.315 539.482L472.615 549.032L471.095 551.562C470.455 551.213 469.815 550.853 469.175 550.503C459.069 544.897 448.682 539.813 438.055 535.272C431.075 532.332 424.005 529.682 416.865 527.422H416.855C414.125 526.562 411.385 525.752 408.635 525.012C409.495 522.702 410.365 520.376 411.245 518.032C412.885 513.662 414.558 509.252 416.265 504.802C419.955 495.163 423.775 485.382 427.705 475.652C430.925 467.662 434.205 459.702 437.525 451.852C439.055 448.232 442.165 445.052 446.515 442.262C448.594 440.951 450.762 439.789 453.005 438.782C465.455 433.112 483.795 429.422 504.005 427.052C505.675 426.862 507.355 426.672 509.045 426.492C525.775 424.732 543.525 423.822 560.125 423.402C568.435 423.192 576.455 423.112 583.915 423.102C586.325 423.102 588.668 423.109 590.945 423.122H590.955C597.105 423.152 602.765 423.242 607.745 423.342C608.715 423.362 609.655 423.392 610.575 423.412H610.585C611.205 423.422 611.815 423.442 612.415 423.452C623.305 423.732 629.985 424.072 629.985 424.072L632.575 403.753L633.105 399.652L633.605 395.753V395.742L633.665 395.253L634.075 395.242L641.275 395.102L701.795 393.922L734.855 393.272L729.615 415.732L720.965 452.792C721.845 458.652 751.105 454.062 750.805 459.032Z" fill="#2F2E41"/>
<path d="M574.385 593.132C571.915 594.392 569.425 595.632 566.925 596.832C562.835 598.812 558.708 600.722 554.545 602.562C547.625 598.632 540.785 594.522 533.985 590.322C522.885 583.462 511.895 576.362 500.875 569.432C499.225 568.382 497.585 567.352 495.935 566.332H495.925C491.385 559.592 486.755 552.572 482.085 545.342C482.015 545.242 481.955 545.142 481.895 545.042C480.695 543.202 479.502 541.349 478.315 539.482C470.845 527.782 463.335 515.582 456.045 503.122L474.505 494.502L508.825 478.482L514.745 475.722L531.765 509.232L546.945 539.122L550.325 545.772L574.385 593.132Z" fill="#2F2E41"/>
<path d="M579.558 432.25L667.058 347.866L691.311 279.197L655.538 263.641C637.163 281.243 617.301 336.065 617.301 336.065L557.088 412.67C556.619 412.83 556.151 413.001 555.689 413.205C552.977 414.401 550.619 416.276 548.844 418.65C547.068 421.023 545.935 423.814 545.553 426.754C545.172 429.693 545.555 432.681 546.666 435.429C547.777 438.177 549.578 440.592 551.894 442.441C554.211 444.289 556.966 445.509 559.892 445.982C562.818 446.455 565.816 446.165 568.598 445.14C571.379 444.116 573.849 442.391 575.769 440.133C577.689 437.875 578.994 435.16 579.558 432.25V432.25Z" fill="#FFB8B8"/>
<path d="M645.472 271.308L690.847 285.713L691.018 285.685C707.907 282.856 721.921 255.272 730.703 232.631C733.592 225.163 733.538 216.876 730.552 209.446C727.565 202.016 721.869 195.997 714.615 192.606V192.606C709.247 190.141 703.296 189.226 697.436 189.966C691.575 190.705 686.038 193.069 681.45 196.791L658.15 215.83L645.472 271.308Z" fill="#6C63FF"/>
<path d="M750.623 460.045L750.888 459.693C765.045 440.917 745.682 394.42 742.755 387.676L755.918 383.777L753.624 358.713L752.519 347.537L762.754 337.817L762.788 337.569L769.827 287.477L779.037 254.323C782.508 241.789 782.582 228.558 779.25 215.986C775.917 203.415 769.3 191.957 760.076 182.788L741.249 164.095L718.693 128.789L680.873 127.812L667.274 151.971C654.626 154.553 643.286 161.489 635.227 171.572C627.167 181.654 622.901 194.245 623.17 207.15L624.451 271.466L610.881 351.153L610.5 365.628L597.181 379.683L599.643 393.892L589.68 397.861L584.805 418.052C582.943 420.382 570.648 435.922 570.537 440.255C570.52 440.905 570.984 441.546 571.996 442.27C579.954 447.964 624.433 460.301 644.452 452.884C665.775 444.99 749.347 459.816 750.189 459.967L750.623 460.045Z" fill="#FFD600"/>
<path d="M696.48 116.989C724.151 116.989 746.583 94.5568 746.583 66.8853C746.583 39.2139 724.151 16.7817 696.48 16.7817C668.808 16.7817 646.376 39.2139 646.376 66.8853C646.376 94.5568 668.808 116.989 696.48 116.989Z" fill="#FFB8B8"/>
<path d="M690.367 117.659C698.126 117.78 705.881 117.238 713.548 116.039C721.147 114.494 738.147 102.036 742.886 94.5396C746.407 88.9697 748.659 80.272 749.928 73.9566C751.637 65.5995 751.572 56.9765 749.736 48.6462C747.901 40.3158 744.337 32.4638 739.274 25.5985C737.328 22.727 734.642 20.4347 731.501 18.9642C731.222 18.8553 730.936 18.7588 730.646 18.6763C726.068 17.4718 721.955 14.9266 718.834 11.3674C718.229 10.6475 717.573 9.97215 716.871 9.34655C713.344 6.36994 709.162 4.27031 704.668 3.21927C697.414 1.27786 686.916 3.20497 673.466 8.95261C666.709 11.8403 659.319 10.7953 653.634 9.56206C653.315 9.50047 652.986 9.52345 652.678 9.62871C652.371 9.73398 652.097 9.91786 651.883 10.1621C649.464 12.4328 646.275 13.7038 642.958 13.7197C640.926 13.809 638.794 16.6225 636.217 20.2915C635.632 21.1243 634.95 22.0963 634.458 22.6875L634.392 21.5517L633.242 22.8188C631.436 24.8103 630.162 27.2267 629.541 29.8428C628.919 32.459 628.97 35.1898 629.688 37.7811C630.406 40.3724 631.768 42.7399 633.648 44.663C635.527 46.5861 637.863 48.0024 640.437 48.7799C642.481 49.3237 644.575 49.6575 646.687 49.7759C647.966 49.891 649.289 50.01 650.557 50.23C654.627 51.0634 658.411 52.9378 661.54 55.6703C664.669 58.4027 667.036 61.8998 668.41 65.8202C668.735 66.7264 669.264 67.5458 669.955 68.2151C670.647 68.8845 671.484 69.3859 672.4 69.6807C673.317 69.9755 674.289 70.0557 675.241 69.9153C676.193 69.7748 677.101 69.4173 677.893 68.8705C679.214 67.8419 680.764 67.1481 682.411 66.8482C684.058 66.5482 685.753 66.6511 687.352 67.1481C688.733 67.9163 689.809 69.1361 690.398 70.6031C691.114 72.2374 692.3 73.6215 693.806 74.5787C698.955 77.2338 699.31 88.9958 697.461 98.8009C695.678 108.252 692.154 115.089 688.891 115.427C686.379 115.687 686.091 115.866 685.909 116.31L685.747 116.708L686.029 117.08C687.417 117.583 688.896 117.78 690.367 117.659V117.659Z" fill="#2F2E41"/>
<path d="M657.913 256.16L638.594 217.645C610.554 219.56 554.9 251.982 554.9 251.982L449.601 274.307C446.482 273.108 443.102 272.752 439.801 273.275C436.5 273.797 433.395 275.18 430.799 277.284C428.202 279.388 426.206 282.139 425.011 285.26C423.815 288.381 423.463 291.761 423.99 295.061C424.516 298.362 425.903 301.465 428.01 304.059C430.117 306.653 432.87 308.646 435.992 309.837C439.115 311.029 442.496 311.377 445.795 310.846C449.095 310.316 452.196 308.926 454.788 306.816L588.734 297.214L657.913 256.16Z" fill="#FFB8B8"/>
<path d="M650.121 262.484L700.575 224.99L709.462 192.963C711.184 186.669 711.111 180.019 709.252 173.764C707.393 167.51 703.821 161.9 698.941 157.568V157.568C692.286 151.742 683.667 148.659 674.826 148.944C665.985 149.23 657.583 152.861 651.317 159.105C632.331 178.056 610.675 204.495 615.327 222.828L615.374 223.014L650.121 262.484Z" fill="#FFD600"/>
<path d="M587.665 362.772H452.665V380.772H587.665V362.772Z" fill="white"/>
<path d="M242.665 362.772H107.665V380.772H242.665V362.772Z" fill="white"/>
<path d="M258.429 276.21V361.914C258.43 363.006 258.864 364.054 259.636 364.826C260.408 365.598 261.456 366.032 262.548 366.033H389.552C390.644 366.032 391.692 365.598 392.464 364.826C393.236 364.054 393.67 363.006 393.671 361.914V276.21C393.669 275.119 393.234 274.073 392.462 273.302C391.69 272.531 390.644 272.097 389.552 272.096H262.548C261.457 272.097 260.41 272.531 259.638 273.302C258.866 274.073 258.431 275.119 258.429 276.21Z" fill="#3F3D56"/>
<path d="M261.408 277.277V360.857C261.409 361.441 261.641 362 262.054 362.413C262.467 362.825 263.026 363.058 263.61 363.059H388.495C389.079 363.058 389.638 362.825 390.051 362.413C390.463 362 390.695 361.441 390.696 360.857V277.277C390.696 276.693 390.465 276.132 390.052 275.719C389.639 275.305 389.079 275.072 388.495 275.071H263.61C263.025 275.072 262.465 275.305 262.053 275.719C261.64 276.132 261.408 276.693 261.408 277.277Z" fill="#FFD600"/>
<path d="M255.773 378.629C256.005 378.92 256.301 379.156 256.638 379.317C256.974 379.478 257.343 379.56 257.716 379.559H393.708C394.08 379.558 394.447 379.475 394.783 379.315C395.118 379.154 395.414 378.921 395.648 378.633C395.883 378.344 396.05 378.006 396.137 377.645C396.225 377.283 396.23 376.907 396.154 376.543L394.043 366.516C393.956 366.107 393.767 365.726 393.495 365.409C393.223 365.091 392.876 364.847 392.485 364.698C392.202 364.587 391.901 364.53 391.597 364.53H259.819C259.515 364.53 259.214 364.587 258.931 364.698C258.54 364.847 258.193 365.091 257.921 365.409C257.648 365.726 257.46 366.107 257.373 366.516L255.262 376.543C255.186 376.907 255.193 377.283 255.282 377.643C255.37 378.004 255.538 378.341 255.773 378.629V378.629Z" fill="#2F2E41"/>
<path d="M386.931 368.85H390.143C390.412 368.85 390.631 368.631 390.631 368.361V366.825C390.631 366.555 390.412 366.337 390.143 366.337H386.931C386.661 366.337 386.442 366.555 386.442 366.825V368.361C386.442 368.631 386.661 368.85 386.931 368.85Z" fill="#3F3D56"/>
<path d="M378.554 368.85H381.766C382.035 368.85 382.254 368.631 382.254 368.361V366.825C382.254 366.555 382.035 366.337 381.766 366.337H378.554C378.284 366.337 378.065 366.555 378.065 366.825V368.361C378.065 368.631 378.284 368.85 378.554 368.85Z" fill="#3F3D56"/>
<path d="M370.177 368.85H373.389C373.658 368.85 373.877 368.631 373.877 368.361V366.825C373.877 366.555 373.658 366.337 373.389 366.337H370.177C369.907 366.337 369.688 366.555 369.688 366.825V368.361C369.688 368.631 369.907 368.85 370.177 368.85Z" fill="#3F3D56"/>
<path d="M361.8 368.85H365.012C365.281 368.85 365.5 368.631 365.5 368.361V366.825C365.5 366.555 365.281 366.337 365.012 366.337H361.8C361.53 366.337 361.312 366.555 361.312 366.825V368.361C361.312 368.631 361.53 368.85 361.8 368.85Z" fill="#3F3D56"/>
<path d="M353.423 368.85H356.635C356.905 368.85 357.123 368.631 357.123 368.361V366.825C357.123 366.555 356.905 366.337 356.635 366.337H353.423C353.153 366.337 352.935 366.555 352.935 366.825V368.361C352.935 368.631 353.153 368.85 353.423 368.85Z" fill="#3F3D56"/>
<path d="M345.046 368.85H348.258C348.527 368.85 348.746 368.631 348.746 368.361V366.825C348.746 366.555 348.527 366.337 348.258 366.337H345.046C344.776 366.337 344.558 366.555 344.558 366.825V368.361C344.558 368.631 344.776 368.85 345.046 368.85Z" fill="#3F3D56"/>
<path d="M336.669 368.85H339.881C340.151 368.85 340.369 368.631 340.369 368.361V366.825C340.369 366.555 340.151 366.337 339.881 366.337H336.669C336.399 366.337 336.181 366.555 336.181 366.825V368.361C336.181 368.631 336.399 368.85 336.669 368.85Z" fill="#3F3D56"/>
<path d="M328.292 368.85H331.504C331.774 368.85 331.992 368.631 331.992 368.361V366.825C331.992 366.555 331.774 366.337 331.504 366.337H328.292C328.022 366.337 327.804 366.555 327.804 366.825V368.361C327.804 368.631 328.022 368.85 328.292 368.85Z" fill="#3F3D56"/>
<path d="M319.915 368.85H323.127C323.397 368.85 323.615 368.631 323.615 368.361V366.825C323.615 366.555 323.397 366.337 323.127 366.337H319.915C319.645 366.337 319.427 366.555 319.427 366.825V368.361C319.427 368.631 319.645 368.85 319.915 368.85Z" fill="#3F3D56"/>
<path d="M311.538 368.85H314.75C315.02 368.85 315.238 368.631 315.238 368.361V366.825C315.238 366.555 315.02 366.337 314.75 366.337H311.538C311.268 366.337 311.05 366.555 311.05 366.825V368.361C311.05 368.631 311.268 368.85 311.538 368.85Z" fill="#3F3D56"/>
<path d="M303.161 368.85H306.373C306.643 368.85 306.861 368.631 306.861 368.361V366.825C306.861 366.555 306.643 366.337 306.373 366.337H303.161C302.891 366.337 302.673 366.555 302.673 366.825V368.361C302.673 368.631 302.891 368.85 303.161 368.85Z" fill="#3F3D56"/>
<path d="M294.784 368.85H297.996C298.266 368.85 298.484 368.631 298.484 368.361V366.825C298.484 366.555 298.266 366.337 297.996 366.337H294.784C294.514 366.337 294.296 366.555 294.296 366.825V368.361C294.296 368.631 294.514 368.85 294.784 368.85Z" fill="#3F3D56"/>
<path d="M286.407 368.85H289.619C289.889 368.85 290.107 368.631 290.107 368.361V366.825C290.107 366.555 289.889 366.337 289.619 366.337H286.407C286.138 366.337 285.919 366.555 285.919 366.825V368.361C285.919 368.631 286.138 368.85 286.407 368.85Z" fill="#3F3D56"/>
<path d="M278.03 368.85H281.242C281.512 368.85 281.73 368.631 281.73 368.361V366.825C281.73 366.555 281.512 366.337 281.242 366.337H278.03C277.761 366.337 277.542 366.555 277.542 366.825V368.361C277.542 368.631 277.761 368.85 278.03 368.85Z" fill="#3F3D56"/>
<path d="M269.653 368.85H272.865C273.135 368.85 273.354 368.631 273.354 368.361V366.825C273.354 366.555 273.135 366.337 272.865 366.337H269.653C269.384 366.337 269.165 366.555 269.165 366.825V368.361C269.165 368.631 269.384 368.85 269.653 368.85Z" fill="#3F3D56"/>
<path d="M261.276 368.85H264.488C264.758 368.85 264.977 368.631 264.977 368.361V366.825C264.977 366.555 264.758 366.337 264.488 366.337H261.276C261.007 366.337 260.788 366.555 260.788 366.825V368.361C260.788 368.631 261.007 368.85 261.276 368.85Z" fill="#3F3D56"/>
<path d="M387.03 373.038H390.242C390.512 373.038 390.73 372.82 390.73 372.55V371.013C390.73 370.744 390.512 370.525 390.242 370.525H387.03C386.761 370.525 386.542 370.744 386.542 371.013V372.55C386.542 372.82 386.761 373.038 387.03 373.038Z" fill="#3F3D56"/>
<path d="M378.653 373.038H381.865C382.135 373.038 382.354 372.82 382.354 372.55V371.013C382.354 370.744 382.135 370.525 381.865 370.525H378.653C378.384 370.525 378.165 370.744 378.165 371.013V372.55C378.165 372.82 378.384 373.038 378.653 373.038Z" fill="#3F3D56"/>
<path d="M370.276 373.038H373.488C373.758 373.038 373.977 372.82 373.977 372.55V371.013C373.977 370.744 373.758 370.525 373.488 370.525H370.276C370.007 370.525 369.788 370.744 369.788 371.013V372.55C369.788 372.82 370.007 373.038 370.276 373.038Z" fill="#3F3D56"/>
<path d="M361.898 373.038H365.11C365.38 373.038 365.599 372.82 365.599 372.55V371.013C365.599 370.744 365.38 370.525 365.11 370.525H361.898C361.629 370.525 361.41 370.744 361.41 371.013V372.55C361.41 372.82 361.629 373.038 361.898 373.038Z" fill="#3F3D56"/>
<path d="M353.522 373.038H356.734C357.004 373.038 357.223 372.82 357.223 372.55V371.013C357.223 370.744 357.004 370.525 356.734 370.525H353.522C353.253 370.525 353.034 370.744 353.034 371.013V372.55C353.034 372.82 353.253 373.038 353.522 373.038Z" fill="#3F3D56"/>
<path d="M345.144 373.038H348.357C348.626 373.038 348.845 372.82 348.845 372.55V371.013C348.845 370.744 348.626 370.525 348.357 370.525H345.144C344.875 370.525 344.656 370.744 344.656 371.013V372.55C344.656 372.82 344.875 373.038 345.144 373.038Z" fill="#3F3D56"/>
<path d="M336.768 373.038H339.98C340.249 373.038 340.468 372.82 340.468 372.55V371.013C340.468 370.744 340.249 370.525 339.98 370.525H336.768C336.498 370.525 336.279 370.744 336.279 371.013V372.55C336.279 372.82 336.498 373.038 336.768 373.038Z" fill="#3F3D56"/>
<path d="M328.391 373.038H331.603C331.872 373.038 332.091 372.82 332.091 372.55V371.013C332.091 370.744 331.872 370.525 331.603 370.525H328.391C328.121 370.525 327.902 370.744 327.902 371.013V372.55C327.902 372.82 328.121 373.038 328.391 373.038Z" fill="#3F3D56"/>
<path d="M320.014 373.038H323.226C323.495 373.038 323.714 372.82 323.714 372.55V371.013C323.714 370.744 323.495 370.525 323.226 370.525H320.014C319.744 370.525 319.525 370.744 319.525 371.013V372.55C319.525 372.82 319.744 373.038 320.014 373.038Z" fill="#3F3D56"/>
<path d="M311.637 373.038H314.849C315.118 373.038 315.337 372.82 315.337 372.55V371.013C315.337 370.744 315.118 370.525 314.849 370.525H311.637C311.367 370.525 311.148 370.744 311.148 371.013V372.55C311.148 372.82 311.367 373.038 311.637 373.038Z" fill="#3F3D56"/>
<path d="M303.26 373.038H306.472C306.741 373.038 306.96 372.82 306.96 372.55V371.013C306.96 370.744 306.741 370.525 306.472 370.525H303.26C302.99 370.525 302.771 370.744 302.771 371.013V372.55C302.771 372.82 302.99 373.038 303.26 373.038Z" fill="#3F3D56"/>
<path d="M294.883 373.038H298.095C298.364 373.038 298.583 372.82 298.583 372.55V371.013C298.583 370.744 298.364 370.525 298.095 370.525H294.883C294.613 370.525 294.395 370.744 294.395 371.013V372.55C294.395 372.82 294.613 373.038 294.883 373.038Z" fill="#3F3D56"/>
<path d="M286.506 373.038H289.718C289.987 373.038 290.206 372.82 290.206 372.55V371.013C290.206 370.744 289.987 370.525 289.718 370.525H286.506C286.236 370.525 286.018 370.744 286.018 371.013V372.55C286.018 372.82 286.236 373.038 286.506 373.038Z" fill="#3F3D56"/>
<path d="M278.129 373.038H281.341C281.611 373.038 281.829 372.82 281.829 372.55V371.013C281.829 370.744 281.611 370.525 281.341 370.525H278.129C277.859 370.525 277.641 370.744 277.641 371.013V372.55C277.641 372.82 277.859 373.038 278.129 373.038Z" fill="#3F3D56"/>
<path d="M269.752 373.038H272.964C273.234 373.038 273.452 372.82 273.452 372.55V371.013C273.452 370.744 273.234 370.525 272.964 370.525H269.752C269.482 370.525 269.264 370.744 269.264 371.013V372.55C269.264 372.82 269.482 373.038 269.752 373.038Z" fill="#3F3D56"/>
<path d="M261.375 373.038H264.587C264.857 373.038 265.075 372.82 265.075 372.55V371.013C265.075 370.744 264.857 370.525 264.587 370.525H261.375C261.105 370.525 260.887 370.744 260.887 371.013V372.55C260.887 372.82 261.105 373.038 261.375 373.038Z" fill="#3F3D56"/>
<path d="M317.501 378.064H350.032C350.302 378.064 350.521 377.845 350.521 377.576V376.039C350.521 375.769 350.302 375.551 350.032 375.551H317.501C317.231 375.551 317.013 375.769 317.013 376.039V377.576C317.013 377.845 317.231 378.064 317.501 378.064Z" fill="#3F3D56"/>
</g>
<defs>
<clipPath id="clip0_498_450">
<rect width="833.222" height="633.11" fill="white"/>
</clipPath>
</defs>
</svg>
