<svg width="206" height="27" viewBox="0 0 206 27" fill="none" xmlns="http://www.w3.org/2000/svg">
<path d="M11.9395 12.1133V6.76953C11.8809 6.69922 11.1953 6.62891 9.88281 6.55859C9.30859 6.55859 8.80469 6.6582 8.37109 6.85742C7.9375 7.06836 7.55078 7.33203 7.21094 7.64844C6.54297 8.33984 6.20898 8.70898 6.20898 8.75586L5.34766 6.92773H0.513672V26H6.5957V12.3945C6.5957 12.3945 6.82422 12.2715 7.28125 12.0254C7.73828 11.8613 8.33008 11.7676 9.05664 11.7441C9.79492 11.7441 10.4512 11.791 11.0254 11.8848C11.5996 12.0371 11.9043 12.1133 11.9395 12.1133ZM31.6094 16.4551C31.6094 14.3223 31.334 12.5938 30.7832 11.2695C30.2324 9.95703 29.4883 8.96094 28.5508 8.28125C27.6367 7.58984 26.6523 7.12695 25.5977 6.89258C25.0703 6.74023 24.5312 6.64063 23.9805 6.59375C23.4531 6.57031 22.9141 6.55859 22.3633 6.55859C21.3086 6.55859 20.2539 6.66992 19.1992 6.89258C18.1094 7.15039 17.1133 7.64258 16.2109 8.36914C15.2969 9.06055 14.5645 10.0566 14.0137 11.3574C13.4395 12.6699 13.1523 14.3691 13.1523 16.4551C13.1523 18.541 13.4512 20.2461 14.0488 21.5703C14.5996 22.8945 15.332 23.9023 16.2461 24.5938C17.1836 25.2617 18.1797 25.7188 19.2344 25.9648C20.2891 26.2227 21.332 26.3516 22.3633 26.3516C22.8672 26.3516 23.3945 26.3164 23.9453 26.2461C24.4961 26.1758 25.0352 26.0938 25.5625 26C26.6172 25.7656 27.6016 25.3086 28.5156 24.6289C29.4531 23.9375 30.1973 22.9297 30.748 21.6055C31.2988 20.3164 31.5859 18.5996 31.6094 16.4551ZM25.5273 16.4551C25.5273 17.7559 25.4453 18.7754 25.2812 19.5137C25.082 20.3105 24.8418 20.9023 24.5605 21.2891C24.2676 21.6641 23.9277 21.9277 23.541 22.0801C23.166 22.2207 22.7734 22.291 22.3633 22.291C21.5664 22.3379 20.8574 21.9805 20.2363 21.2188C20.0957 20.9961 19.9785 20.7324 19.8848 20.4277C19.7324 20.1348 19.6094 19.7949 19.5156 19.4082C19.3281 18.6699 19.2344 17.6855 19.2344 16.4551C19.2344 14.0059 19.5332 12.4004 20.1309 11.6387C20.4121 11.2285 20.7461 10.9414 21.1328 10.7773C21.4961 10.6602 21.9062 10.6016 22.3633 10.6016C23.3477 10.543 24.127 10.8535 24.7012 11.5332C24.9941 11.9199 25.2109 12.5059 25.3516 13.291C25.4688 14.0879 25.5273 15.1426 25.5273 16.4551ZM48.0625 25.4551V20.9902C48.0156 21.0137 47.5117 21.1367 46.5508 21.3594C45.6133 21.6172 44.6641 21.7578 43.7031 21.7812C42.6484 21.8047 41.834 21.4824 41.2598 20.8145C40.9785 20.4277 40.7617 19.8887 40.6094 19.1973C40.4219 18.5293 40.3281 17.6504 40.3281 16.5605C40.3281 15.3418 40.4453 14.3633 40.6797 13.625C40.8789 12.875 41.1484 12.3066 41.4883 11.9199C41.8398 11.5449 42.2324 11.293 42.666 11.1641C43.0996 11.0703 43.5449 11.0234 44.002 11.0234C44.7871 11.0469 45.6484 11.1699 46.5859 11.3926C47.5234 11.6504 48.0156 11.791 48.0625 11.8145V7.49023C48.0391 7.4668 47.6113 7.30273 46.7793 6.99805C45.9121 6.72852 44.793 6.58203 43.4219 6.55859C42.5781 6.55859 41.6406 6.6582 40.6094 6.85742C39.5781 7.0918 38.582 7.54297 37.6211 8.21094C36.6602 8.89062 35.8691 9.89844 35.248 11.2344C34.5801 12.582 34.2461 14.3574 34.2461 16.5605C34.2461 18.7754 34.5332 20.5391 35.1074 21.8516C35.6582 23.1523 36.3789 24.1367 37.2695 24.8047C38.1602 25.4375 39.1211 25.8594 40.1523 26.0703C41.1367 26.2578 42.0859 26.3516 43 26.3516C44.4062 26.3281 45.5898 26.1758 46.5508 25.8945C47.5352 25.625 48.0391 25.4785 48.0625 25.4551ZM68.752 26L63.3555 15.1367L68.0312 6.92773H61.1934L57.2734 15.3828L61.9844 26.3516L68.752 26ZM57.0449 26V0.0898438H50.9629V26H57.0449ZM85.9961 16.4551C86.0195 14.416 85.791 12.7402 85.3105 11.4277C84.8301 10.127 84.1855 9.13086 83.377 8.43945C82.5566 7.71289 81.6543 7.2207 80.6699 6.96289C79.6855 6.69336 78.7129 6.55859 77.752 6.55859C76.7676 6.55859 75.7715 6.69336 74.7637 6.96289C73.7324 7.2207 72.8008 7.72461 71.9688 8.47461C71.125 9.16602 70.4512 10.1621 69.9473 11.4629C69.3965 12.7754 69.1211 14.4395 69.1211 16.4551C69.1211 18.6699 69.4316 20.4336 70.0527 21.7461C70.6035 23.0703 71.3594 24.0664 72.3203 24.7344C73.2812 25.4141 74.3008 25.8477 75.3789 26.0352C75.9297 26.1289 76.4688 26.1992 76.9961 26.2461C77.5234 26.3164 78.0391 26.3516 78.543 26.3516C80.2773 26.3281 81.7656 26.1641 83.0078 25.8594C84.2617 25.5664 84.9004 25.4082 84.9238 25.3848V20.9199C84.877 20.9434 84.1562 21.0898 82.7617 21.3594C81.3906 21.6406 80.1074 21.793 78.9121 21.8164C77.834 21.8398 76.9551 21.6289 76.2754 21.1836C75.584 20.75 75.2031 19.8008 75.1328 18.3359H85.9609L85.9961 16.4551ZM80.1777 14.9082H75.0977C75.1211 13.373 75.3145 12.2129 75.6777 11.4277C76.0059 10.6543 76.6973 10.2676 77.752 10.2676C78.6895 10.2676 79.3281 10.6426 79.668 11.3926C80.0078 12.1543 80.1777 13.3262 80.1777 14.9082ZM100.85 25.5254V21.2891C100.791 21.3125 100.357 21.4062 99.5488 21.5703C98.752 21.7578 98.0898 21.8516 97.5625 21.8516C97.2227 21.8867 96.9473 21.8164 96.7363 21.6406C96.4785 21.4766 96.3496 21.1426 96.3496 20.6387V10.7422H99.9004L100.48 6.92773H96.3496V1.16211L90.8301 2.70898L90.25 6.92773H87.1914V10.7422H90.25V20.8496C90.25 22.0332 90.4316 22.9824 90.7949 23.6973C91.1348 24.4355 91.5801 24.998 92.1309 25.3848C92.6816 25.7715 93.3145 26.0234 94.0293 26.1406C94.7324 26.2812 95.4414 26.3516 96.1562 26.3516C97.457 26.3281 98.5645 26.1875 99.4785 25.9297C100.357 25.6836 100.814 25.5488 100.85 25.5254Z" fill="#DB504E"/>
<path d="M121.24 16.3496C121.24 14.0762 121 12.2656 120.52 10.918C120.039 9.59375 119.424 8.62109 118.674 8C117.936 7.37891 117.156 6.96875 116.336 6.76953C115.504 6.62891 114.736 6.55859 114.033 6.55859C112.768 6.58203 111.736 6.83398 110.939 7.31445C110.119 7.81836 109.709 8.08203 109.709 8.10547V0.0898438H103.627V25.5957C103.697 25.6309 104.635 25.7539 106.439 25.9648C108.139 26.1992 109.744 26.3281 111.256 26.3516C112.393 26.3516 113.547 26.2578 114.719 26.0703C115.891 25.8828 116.969 25.4492 117.953 24.7695C118.938 24.1016 119.734 23.0938 120.344 21.7461C120.941 20.4102 121.24 18.6113 121.24 16.3496ZM115.158 16.3496C115.158 17.7441 115.07 18.8516 114.895 19.6719C114.73 20.4805 114.479 21.0898 114.139 21.5C113.811 21.8867 113.465 22.1387 113.102 22.2559C112.691 22.373 112.27 22.4316 111.836 22.4316C111.355 22.4316 110.898 22.3965 110.465 22.3262C109.984 22.2793 109.732 22.2559 109.709 22.2559V11.6387C109.709 11.6152 109.99 11.4688 110.553 11.1992C111.057 10.9648 111.654 10.8359 112.346 10.8125C113.33 10.7656 114.051 11.0293 114.508 11.6035C114.941 12.2246 115.158 13.8066 115.158 16.3496ZM131.119 26V0.0898438H125.037V26H131.119ZM153.109 16.4551C153.109 14.3223 152.834 12.5938 152.283 11.2695C151.732 9.95703 150.988 8.96094 150.051 8.28125C149.137 7.58984 148.152 7.12695 147.098 6.89258C146.57 6.74023 146.031 6.64063 145.48 6.59375C144.953 6.57031 144.414 6.55859 143.863 6.55859C142.809 6.55859 141.754 6.66992 140.699 6.89258C139.609 7.15039 138.613 7.64258 137.711 8.36914C136.797 9.06055 136.064 10.0566 135.514 11.3574C134.939 12.6699 134.652 14.3691 134.652 16.4551C134.652 18.541 134.951 20.2461 135.549 21.5703C136.1 22.8945 136.832 23.9023 137.746 24.5938C138.684 25.2617 139.68 25.7188 140.734 25.9648C141.789 26.2227 142.832 26.3516 143.863 26.3516C144.367 26.3516 144.895 26.3164 145.445 26.2461C145.996 26.1758 146.535 26.0938 147.062 26C148.117 25.7656 149.102 25.3086 150.016 24.6289C150.953 23.9375 151.697 22.9297 152.248 21.6055C152.799 20.3164 153.086 18.5996 153.109 16.4551ZM147.027 16.4551C147.027 17.7559 146.945 18.7754 146.781 19.5137C146.582 20.3105 146.342 20.9023 146.061 21.2891C145.768 21.6641 145.428 21.9277 145.041 22.0801C144.666 22.2207 144.273 22.291 143.863 22.291C143.066 22.3379 142.357 21.9805 141.736 21.2188C141.596 20.9961 141.479 20.7324 141.385 20.4277C141.232 20.1348 141.109 19.7949 141.016 19.4082C140.828 18.6699 140.734 17.6855 140.734 16.4551C140.734 14.0059 141.033 12.4004 141.631 11.6387C141.912 11.2285 142.246 10.9414 142.633 10.7773C142.996 10.6602 143.406 10.6016 143.863 10.6016C144.848 10.543 145.627 10.8535 146.201 11.5332C146.494 11.9199 146.711 12.5059 146.852 13.291C146.969 14.0879 147.027 15.1426 147.027 16.4551ZM169.562 25.4551V20.9902C169.516 21.0137 169.012 21.1367 168.051 21.3594C167.113 21.6172 166.164 21.7578 165.203 21.7812C164.148 21.8047 163.334 21.4824 162.76 20.8145C162.479 20.4277 162.262 19.8887 162.109 19.1973C161.922 18.5293 161.828 17.6504 161.828 16.5605C161.828 15.3418 161.945 14.3633 162.18 13.625C162.379 12.875 162.648 12.3066 162.988 11.9199C163.34 11.5449 163.732 11.293 164.166 11.1641C164.6 11.0703 165.045 11.0234 165.502 11.0234C166.287 11.0469 167.148 11.1699 168.086 11.3926C169.023 11.6504 169.516 11.791 169.562 11.8145V7.49023C169.539 7.4668 169.111 7.30273 168.279 6.99805C167.412 6.72852 166.293 6.58203 164.922 6.55859C164.078 6.55859 163.141 6.6582 162.109 6.85742C161.078 7.0918 160.082 7.54297 159.121 8.21094C158.16 8.89062 157.369 9.89844 156.748 11.2344C156.08 12.582 155.746 14.3574 155.746 16.5605C155.746 18.7754 156.033 20.5391 156.607 21.8516C157.158 23.1523 157.879 24.1367 158.77 24.8047C159.66 25.4375 160.621 25.8594 161.652 26.0703C162.637 26.2578 163.586 26.3516 164.5 26.3516C165.906 26.3281 167.09 26.1758 168.051 25.8945C169.035 25.625 169.539 25.4785 169.562 25.4551ZM190.252 26L184.855 15.1367L189.531 6.92773H182.693L178.773 15.3828L183.484 26.3516L190.252 26ZM178.545 26V0.0898438H172.463V26H178.545ZM205.141 20.1992C205.141 19.2617 205.023 18.4707 204.789 17.8262C204.52 17.1816 204.18 16.6426 203.77 16.209C203.359 15.7754 202.902 15.418 202.398 15.1367C201.895 14.8672 201.379 14.6621 200.852 14.5215L199.27 13.9766C198.648 13.7891 198.109 13.5723 197.652 13.3262C197.148 13.1152 196.896 12.7812 196.896 12.3242C196.85 11.4336 197.605 11 199.164 11.0234C200.266 11.0469 201.355 11.1934 202.434 11.4629C203.57 11.7441 204.162 11.8965 204.209 11.9199V7.49023C204.186 7.4668 203.67 7.30273 202.662 6.99805C201.654 6.72852 200.342 6.58203 198.725 6.55859C197.799 6.55859 196.879 6.64063 195.965 6.80469C195.051 6.98047 194.219 7.29688 193.469 7.75391C192.754 8.1875 192.168 8.79688 191.711 9.58203C191.23 10.3789 190.99 11.3867 190.99 12.6055C190.99 13.4961 191.148 14.252 191.465 14.873C191.723 15.4941 192.068 16.0215 192.502 16.4551C192.959 16.8887 193.439 17.2285 193.943 17.4746C194.447 17.7559 194.939 17.9844 195.42 18.1602L196.861 18.6523C197.506 18.8516 198.057 19.0684 198.514 19.3027C198.971 19.5488 199.199 19.9355 199.199 20.4629C199.199 21.084 198.971 21.4648 198.514 21.6055C198.057 21.7695 197.459 21.8398 196.721 21.8164C195.807 21.793 194.723 21.6289 193.469 21.3242C192.156 21.0312 191.477 20.873 191.43 20.8496V25.4551C191.453 25.4785 192.062 25.625 193.258 25.8945C194.418 26.1758 195.725 26.3281 197.178 26.3516C198.162 26.3516 199.135 26.2812 200.096 26.1406C201.01 26 201.854 25.7246 202.627 25.3145C203.389 24.8809 203.998 24.248 204.455 23.416C204.912 22.5957 205.141 21.5234 205.141 20.1992Z" fill="#1F7CF8"/>
</svg>
