<svg width="40" height="45" viewBox="0 0 40 45" fill="none" xmlns="http://www.w3.org/2000/svg">
<path d="M6.44604 7.92826L14.446 3.24874C17.8768 1.24196 22.1232 1.24196 25.554 3.24874L33.554 7.92826C36.9269 9.90124 39 13.5155 39 17.4232V26.8308C39 30.6019 37.0682 34.1102 33.8813 36.1265L25.8813 41.188C22.2897 43.4604 17.7103 43.4604 14.1187 41.188L6.11869 36.1265C2.93184 34.1102 1 30.602 1 26.8308V17.4232C1 13.5155 3.07307 9.90125 6.44604 7.92826Z" fill="white" stroke="black"/>
<path d="M14.2971 9.67822L19.6434 7.89612L24.2769 8.60896L27.4847 11.1039L29.2668 15.0245L28.554 20.7273L24.9898 25.7172L24.2769 28.5686H15.3664V26.43L13.5843 23.2222L10.7329 19.658V15.0245L14.2971 9.67822Z" fill="#FFE665" stroke="black"/>
<path d="M14.6536 32.1328L25.3462 32.1328" stroke="black" stroke-width="2"/>
<path d="M14.6536 34.9841L25.3462 34.9841" stroke="black" stroke-width="2"/>
<ellipse cx="22.0505" cy="13.4014" rx="0.749474" ry="0.734777" fill="black"/>
<ellipse cx="22.0505" cy="13.4015" rx="0.374737" ry="0.367388" fill="#E5E5E5"/>
<ellipse cx="19.4272" cy="16.3406" rx="0.749474" ry="0.734777" fill="black"/>
<ellipse cx="19.4272" cy="16.3407" rx="0.374737" ry="0.367388" fill="#E5E5E5"/>
<ellipse cx="20.5515" cy="20.3818" rx="0.749474" ry="0.734777" fill="black"/>
<ellipse cx="20.5515" cy="20.3817" rx="0.374737" ry="0.367388" fill="#E5E5E5"/>
<ellipse cx="16.8042" cy="22.9535" rx="0.749474" ry="0.734777" fill="black"/>
<ellipse cx="16.8042" cy="22.9535" rx="0.374737" ry="0.367388" fill="#E5E5E5"/>
<path d="M11.0894 16.3405H15.9609M18.4904 16.3405H15.9609M15.9609 16.3405V13.4014H20.5515M11.0894 18.9122H16.8041V20.3817M16.8041 21.8513V20.3817M16.8041 20.3817H19.4272" stroke="black"/>
<path d="M20.0557 7.89612C19.0129 7.89612 18.399 8.02832 17.3853 8.26483C16.4138 8.49147 15.9395 8.85238 15.0964 9.37096C13.9376 10.0837 13.2886 10.5502 12.426 11.5832C11.6716 12.4866 11.2993 13.0693 10.9 14.1642C10.353 15.6642 10.2511 16.6508 10.5185 18.22C10.7254 19.434 11.1193 20.0573 11.663 21.1697C12.176 22.2194 12.5427 22.7722 13.1889 23.7507C13.8784 24.7948 15.0964 26.3317 15.0964 26.3317L15.4779 29.2814H24.6336" stroke="black" stroke-width="2"/>
<path d="M19.9443 7.89612C20.9871 7.89612 21.601 8.02832 22.6147 8.26483C23.5862 8.49147 24.0605 8.85238 24.9036 9.37096C26.0624 10.0837 26.7114 10.5502 27.574 11.5832C28.3284 12.4866 28.7007 13.0693 29.1 14.1642C29.647 15.6642 29.7489 16.6508 29.4815 18.22C29.2746 19.434 28.8807 20.0573 28.337 21.1697C27.824 22.2194 27.4573 22.7722 26.8111 23.7507C26.1216 24.7948 24.9036 26.3317 24.9036 26.3317L24.5221 29.2814H15.3664" stroke="black" stroke-width="2"/>
</svg>
