<svg width="845" height="596" viewBox="0 0 845 596" fill="none" xmlns="http://www.w3.org/2000/svg">
<g id="undraw_questions_re_1fy7 1" clip-path="url(#clip0_477_367)">
<path id="Vector" d="M706.199 591.416C731.934 583.687 759.293 575.628 779.703 557.255C797.94 540.836 810.253 515.766 802.697 491.143C795.157 466.571 772.573 450.187 749.256 442.038C736.031 437.416 722.195 434.852 708.364 432.837C693.329 430.648 678.228 428.854 663.134 427.127C602.016 420.137 540.668 415.867 479.09 414.316C448.706 413.551 418.327 413.57 387.938 414.011C360.798 414.405 332.216 414.395 307.039 402.86C287.46 393.89 269.691 377.571 264.235 356.127C257.938 331.372 269.553 306.163 286.215 288.235C294.998 278.784 305.263 270.831 315.852 263.517C327.339 255.583 339.227 248.211 351.372 241.329C375.293 227.782 400.302 216.252 426.139 206.861C438.885 202.226 451.82 198.228 464.867 194.539C475.884 191.424 486.935 188.305 497.583 184.062C518.166 175.858 537.744 161.962 542.977 139.18C547.937 117.589 539.574 94.1495 524.912 78.1096C507.949 59.5526 482.373 51.4178 457.852 50.1016C430.324 48.624 403.43 55.5136 377.555 64.2575C349.959 73.5835 322.957 84.3067 294.777 91.8607C266.833 99.3441 238.348 104.639 209.581 107.697C195.499 109.197 180.991 110.89 166.825 109.742C154.953 108.78 143.141 105.288 134.391 96.8623C126.888 89.6376 122.419 79.7083 123.956 69.23C124.235 67.3268 127.126 68.1359 126.849 70.0275C124.978 82.7826 133.648 94.5361 144.333 100.557C156.681 107.515 171.707 107.525 185.454 106.729C215.263 104.928 244.871 100.648 273.969 93.9332C302.561 87.4026 330.133 78.0668 357.673 68.0941C383.829 58.6226 410.57 49.3783 438.513 47.3268C462.759 45.5467 488.265 49.079 509.387 61.7499C527.951 72.8859 541.602 91.4572 545.952 112.768C550.202 133.593 544.315 154.553 528.552 169.085C512.23 184.132 489.851 190.564 468.995 196.489C442.543 204.003 416.658 212.787 391.603 224.192C366.206 235.72 341.85 249.413 318.803 265.12C296.556 280.322 274.602 299.451 267.566 326.571C264.289 339.204 264.894 352.603 270.378 364.536C275.254 375.146 283.284 384.071 292.639 390.954C314.96 407.379 343.092 410.751 370.054 411.087C400.335 411.463 430.617 410.441 460.909 410.939C522.641 411.952 584.247 415.709 645.727 422.211C661.133 423.842 676.518 425.644 691.885 427.618C705.706 429.394 719.575 431.159 733.163 434.313C757.326 439.921 780.837 450.705 795.855 471.191C802.52 480.071 806.65 490.594 807.802 501.637C808.854 513.161 806.032 524.706 800.822 534.958C789.29 557.648 767.688 572.081 744.749 581.562C732.462 586.641 719.717 590.488 706.997 594.309C705.144 594.865 704.352 591.97 706.2 591.416L706.199 591.416Z" fill="#F2F2F2"/>
<path id="Vector_2" d="M125.893 93.5C139.147 93.5 149.893 82.7548 149.893 69.5C149.893 56.2452 139.147 45.5 125.893 45.5C112.638 45.5 101.893 56.2452 101.893 69.5C101.893 82.7548 112.638 93.5 125.893 93.5Z" fill="#F2F2F2"/>
<path id="Vector_3" d="M292.393 139C305.647 139 316.393 128.255 316.393 115C316.393 101.745 305.647 91 292.393 91C279.138 91 268.393 101.745 268.393 115C268.393 128.255 279.138 139 292.393 139Z" fill="#F2F2F2"/>
<path id="Vector_4" d="M433.393 48C446.647 48 457.393 37.2548 457.393 24C457.393 10.7452 446.647 0 433.393 0C420.138 0 409.393 10.7452 409.393 24C409.393 37.2548 420.138 48 433.393 48Z" fill="#F2F2F2"/>
<path id="Vector_5" d="M521.393 150C534.647 150 545.393 139.255 545.393 126C545.393 112.745 534.647 102 521.393 102C508.138 102 497.393 112.745 497.393 126C497.393 139.255 508.138 150 521.393 150Z" fill="#F2F2F2"/>
<path id="Vector_6" d="M402.393 268C415.647 268 426.393 257.255 426.393 244C426.393 230.745 415.647 220 402.393 220C389.138 220 378.393 230.745 378.393 244C378.393 257.255 389.138 268 402.393 268Z" fill="#F2F2F2"/>
<path id="Vector_7" d="M251.393 325C264.647 325 275.393 314.255 275.393 301C275.393 287.745 264.647 277 251.393 277C238.138 277 227.393 287.745 227.393 301C227.393 314.255 238.138 325 251.393 325Z" fill="#F2F2F2"/>
<path id="Vector_8" d="M411.393 414C424.647 414 435.393 403.255 435.393 390C435.393 376.745 424.647 366 411.393 366C398.138 366 387.393 376.745 387.393 390C387.393 403.255 398.138 414 411.393 414Z" fill="#F2F2F2"/>
<path id="Vector_9" d="M583.393 464C596.647 464 607.393 453.255 607.393 440C607.393 426.745 596.647 416 583.393 416C570.138 416 559.393 426.745 559.393 440C559.393 453.255 570.138 464 583.393 464Z" fill="#F2F2F2"/>
<path id="Vector_10" d="M784.393 453C797.647 453 808.393 442.255 808.393 429C808.393 415.745 797.647 405 784.393 405C771.138 405 760.393 415.745 760.393 429C760.393 442.255 771.138 453 784.393 453Z" fill="#F2F2F2"/>
<path id="Vector_11" d="M843.485 595.262H1.19115C0.875955 595.261 0.573992 595.135 0.35144 594.912C0.128889 594.688 0.00390625 594.386 0.00390625 594.071C0.00390625 593.756 0.128889 593.453 0.35144 593.23C0.573992 593.007 0.875955 592.881 1.19115 592.88H843.485C843.801 592.88 844.104 593.006 844.327 593.229C844.55 593.452 844.676 593.755 844.676 594.071C844.676 594.387 844.55 594.689 844.327 594.913C844.104 595.136 843.801 595.262 843.485 595.262V595.262Z" fill="#3F3D56"/>
<path id="Vector_12" d="M617.645 318.214C617.45 318.214 617.255 318.202 617.061 318.177C616.214 318.074 615.414 317.73 614.756 317.186C614.098 316.643 613.61 315.921 613.35 315.108L604.208 287.079C603.979 286.371 604.014 285.603 604.307 284.918C604.6 284.234 605.131 283.678 605.802 283.355L606.099 283.214C606.368 283.086 606.634 282.96 606.906 282.839C611.169 280.862 615.81 279.831 620.509 279.816C626.61 279.827 632.574 281.619 637.67 284.973C638.354 285.427 638.831 286.132 639 286.935C639.168 287.739 639.015 288.576 638.572 289.267L621.422 316.135C621.02 316.773 620.462 317.298 619.802 317.662C619.141 318.026 618.399 318.216 617.645 318.214V318.214Z" fill="#E6E6E6"/>
<path id="Vector_13" d="M126.541 582.585L138.8 582.584L144.633 535.296L126.538 535.297L126.541 582.585Z" fill="#FFB8B8"/>
<path id="Vector_14" d="M162.444 593.968L123.914 593.969L123.913 579.082L147.557 579.081C151.505 579.081 155.292 580.649 158.084 583.441C160.876 586.233 162.444 590.019 162.444 593.967V593.967L162.444 593.968Z" fill="#2F2E41"/>
<path id="Vector_15" d="M82.5411 582.585L94.8001 582.584L100.633 535.296L82.5381 535.297L82.5411 582.585Z" fill="#FFB8B8"/>
<path id="Vector_16" d="M118.444 593.968L79.9136 593.969L79.913 579.082L103.557 579.081C107.505 579.081 111.292 580.649 114.084 583.441C116.876 586.233 118.444 590.019 118.444 593.967V593.967L118.444 593.968Z" fill="#2F2E41"/>
<path id="Vector_17" d="M93.2547 568.042L81.2797 567.412C80.6622 567.379 80.0573 567.224 79.5 566.957C78.9428 566.689 78.4442 566.313 78.0332 565.851C77.6223 565.389 77.307 564.85 77.1059 564.265C76.9047 563.68 76.8215 563.062 76.8612 562.445L91.1739 403.979L157.085 421.764L163.435 420.032L143.577 560.317C143.408 561.372 142.884 562.338 142.091 563.055C141.299 563.772 140.285 564.198 139.219 564.261L126.31 564.863C125.664 564.899 125.018 564.8 124.413 564.574C123.807 564.347 123.255 563.997 122.792 563.547C122.329 563.096 121.964 562.554 121.72 561.955C121.477 561.356 121.36 560.713 121.378 560.067L123.717 475.871C123.728 475.481 123.593 475.102 123.338 474.807C123.083 474.513 122.727 474.325 122.34 474.279C121.954 474.234 121.564 474.336 121.248 474.563C120.932 474.791 120.713 475.129 120.634 475.511L98.0771 564.323C97.8642 565.377 97.2924 566.324 96.4592 567.003C95.626 567.683 94.583 568.052 93.508 568.049C93.4241 568.049 93.3397 568.047 93.2547 568.042Z" fill="#2F2E41"/>
<path id="Vector_18" d="M128.742 274.32C142.306 274.32 153.303 263.323 153.303 249.759C153.303 236.194 142.306 225.198 128.742 225.198C115.177 225.198 104.181 236.194 104.181 249.759C104.181 263.323 115.177 274.32 128.742 274.32Z" fill="#FFB8B8"/>
<path id="Vector_19" d="M87.8497 321.918L90.5503 380.185L91.5265 401.384C91.5654 402.307 91.8787 403.197 92.4264 403.941C92.974 404.684 93.7311 405.248 94.6008 405.559L157.937 428.503C158.448 428.693 158.991 428.788 159.536 428.783C160.16 428.786 160.778 428.663 161.354 428.422C161.929 428.181 162.45 427.826 162.885 427.379C163.32 426.933 163.661 426.402 163.887 425.821C164.113 425.239 164.219 424.618 164.2 423.995L161.603 319.228C161.433 310.632 158.269 302.365 152.657 295.853C147.044 289.34 139.336 284.989 130.86 283.551C130.247 283.457 129.624 283.364 129.001 283.28C123.745 282.628 118.41 283.135 113.371 284.766C108.332 286.398 103.712 289.113 99.8356 292.722C95.8216 296.414 92.6675 300.942 90.5964 305.987C88.5253 311.032 87.5876 316.47 87.8497 321.918L87.8497 321.918Z" fill="#CCCCCC"/>
<path id="Vector_20" d="M188.192 416.876C186.694 416.411 185.326 415.602 184.196 414.515C183.066 413.427 182.206 412.09 181.684 410.611C181.163 409.132 180.994 407.551 181.192 405.995C181.39 404.439 181.949 402.951 182.824 401.649L161.346 373.089L179.88 371.942L197.434 399.239C199.314 400.692 200.621 402.76 201.128 405.081C201.635 407.402 201.308 409.827 200.206 411.931C199.103 414.035 197.295 415.684 195.098 416.588C192.902 417.492 190.457 417.594 188.193 416.876H188.192Z" fill="#FFB8B8"/>
<path id="Vector_21" d="M173.091 396.481C172.522 396.25 172.004 395.909 171.568 395.476C171.132 395.044 170.786 394.529 170.55 393.963L138.192 316.868C137.557 315.359 137.226 313.739 137.217 312.102C137.208 310.464 137.522 308.841 138.141 307.325C138.76 305.809 139.672 304.43 140.824 303.266C141.977 302.102 143.347 301.177 144.857 300.544C146.367 299.91 147.987 299.58 149.624 299.573C151.262 299.565 152.885 299.881 154.4 300.501C155.916 301.121 157.294 302.034 158.457 303.187C159.62 304.34 160.544 305.711 161.176 307.221L193.534 384.317C194.013 385.46 194.018 386.746 193.549 387.893C193.08 389.04 192.176 389.954 191.034 390.435L176.668 396.464C176.103 396.703 175.496 396.828 174.881 396.831C174.267 396.834 173.659 396.715 173.091 396.481L173.091 396.481Z" fill="#CCCCCC"/>
<path id="Vector_22" d="M120.846 393.762L151.925 334.253C152.524 333.108 153.553 332.248 154.786 331.862C156.018 331.475 157.354 331.593 158.5 332.189L203.611 355.749C204.756 356.349 205.616 357.378 206.003 358.61C206.389 359.843 206.272 361.179 205.675 362.324L174.595 421.833C173.996 422.978 172.967 423.838 171.735 424.225C170.502 424.611 169.166 424.493 168.021 423.897L122.909 400.337C121.765 399.737 120.905 398.708 120.518 397.476C120.131 396.243 120.249 394.907 120.846 393.762Z" fill="#3F3D56"/>
<path id="Vector_23" d="M141.688 366.574C141.135 365.106 140.247 363.787 139.095 362.723C137.942 361.66 136.557 360.88 135.049 360.447C133.542 360.013 131.954 359.938 130.413 360.228C128.871 360.517 127.419 361.163 126.171 362.113L96.3924 342.359L96.3418 360.929L124.628 376.841C126.189 378.631 128.331 379.814 130.678 380.183C133.024 380.552 135.426 380.083 137.461 378.858C139.497 377.633 141.036 375.731 141.808 373.484C142.581 371.238 142.539 368.792 141.688 366.574V366.574Z" fill="#FFB8B8"/>
<path id="Vector_24" d="M104.039 370.75L79.7019 351.472C77.0692 350.588 74.6902 349.078 72.7694 347.072C70.8485 345.067 69.4431 342.625 68.6737 339.956C67.9043 337.288 67.794 334.472 68.3522 331.752C68.9104 329.031 70.1205 326.487 71.8785 324.337L93.9756 295.377C95.5112 293.501 97.6708 292.24 100.06 291.824C102.448 291.409 104.907 291.867 106.986 293.115C109.065 294.363 110.625 296.318 111.381 298.622C112.138 300.925 112.04 303.424 111.105 305.662L93.6214 334.262L119.315 346.448C119.913 346.732 120.443 347.139 120.872 347.642C121.301 348.146 121.617 348.735 121.802 349.37C121.986 350.005 122.033 350.672 121.94 351.327C121.847 351.981 121.617 352.609 121.264 353.168L110.892 369.582C110.541 370.136 110.078 370.61 109.533 370.974C108.987 371.338 108.371 371.583 107.725 371.693C107.699 371.698 107.674 371.702 107.648 371.705C107.013 371.801 106.365 371.766 105.744 371.602C105.123 371.437 104.543 371.147 104.039 370.75V370.75Z" fill="#CCCCCC"/>
<path id="Vector_25" d="M110.183 266.205C110.077 265.897 110.044 265.569 110.085 265.245C110.126 264.922 110.241 264.613 110.42 264.341C110.599 264.069 110.838 263.841 111.119 263.676C111.399 263.51 111.714 263.411 112.039 263.386C112.704 263.422 113.355 263.593 113.953 263.888C114.55 264.183 115.082 264.595 115.515 265.101C116.404 266.126 117.439 267.015 118.586 267.738C119.774 268.337 121.386 268.252 122.063 267.11C122.699 266.038 122.263 264.602 121.878 263.357C120.898 260.188 120.35 256.902 120.248 253.587C120.137 249.886 120.659 246.025 122.708 243.139C125.352 239.414 130.079 238 134.553 238.102C139.028 238.205 143.429 239.586 147.861 240.459C149.391 240.76 151.189 240.914 152.212 239.729C153.3 238.468 152.901 236.427 152.438 234.725C151.237 230.307 149.963 225.74 147.173 222.173C144.156 218.466 139.846 216.039 135.112 215.382C130.567 214.819 125.953 215.343 121.649 216.911C114.638 219.121 108.469 223.418 103.967 229.229C99.3252 235.409 97.3197 243.175 98.3884 250.83C99.4325 257.496 102.965 263.519 108.274 267.684L110.183 266.205Z" fill="#2F2E41"/>
<g id="question">
<path id="Vector_26" d="M430.767 152.074C441.113 152.568 451.185 155.565 460.117 160.809C469.049 166.053 476.576 173.387 482.049 182.181C487.523 190.974 490.781 200.965 491.544 211.294C492.306 221.624 490.55 231.985 486.426 241.487C492.391 234.481 496.775 226.272 499.28 217.419C501.784 208.565 502.35 199.276 500.94 190.184C499.529 181.092 496.174 172.411 491.104 164.733C486.034 157.055 479.368 150.561 471.561 145.692C463.754 140.824 454.988 137.696 445.863 136.523C436.737 135.349 427.466 136.157 418.68 138.891C409.895 141.626 401.803 146.222 394.955 152.367C388.108 158.513 382.666 166.062 379 174.501C385.335 167.049 393.298 161.151 402.273 157.262C411.248 153.374 420.997 151.598 430.767 152.074V152.074Z" fill="#3F3D56"/>
<path id="Vector_27" d="M441.148 451.003C432.019 451.005 423.254 447.418 416.746 441.015C410.237 434.613 406.507 425.909 406.358 416.78C405.935 390.324 405.716 357.728 405.716 354.003C405.71 344.94 407.015 335.924 409.589 327.235L409.577 327.232C411.098 322.87 412.934 318.625 415.071 314.531C408.51 323.275 403.288 332.948 399.577 343.232L399.589 343.235C397.015 351.924 395.71 360.94 395.716 370.003C395.716 373.728 395.935 406.324 396.358 432.78C396.507 441.909 400.237 450.613 406.746 457.015C413.254 463.418 422.019 467.005 431.148 467.003V467.003C438.676 467.001 446 464.559 452.022 460.043C458.045 455.527 462.44 449.18 464.55 441.954C458.153 447.787 449.805 451.015 441.148 451.003V451.003Z" fill="#3F3D56"/>
<g id="Group 42">
<path id="Vector_28" d="M641.247 271.996C657.816 271.996 671.247 258.564 671.247 241.996C671.247 225.427 657.816 211.996 641.247 211.996C624.679 211.996 611.247 225.427 611.247 241.996C611.247 258.564 624.679 271.996 641.247 271.996Z" fill="#2F2E41"/>
<g id="group111">
<path id="Vector_29" d="M444.19 593C469.596 593 490.19 572.405 490.19 547C490.19 521.595 469.596 501 444.19 501C418.785 501 398.19 521.595 398.19 547C398.19 572.405 418.785 593 444.19 593Z" fill="#FFD600"/>
<path id="Vector_30" d="M439.263 67.0035C367.371 67.5113 308.507 125.933 307.486 197.82C307.476 198.484 307.472 203.15 307.473 209.254C307.473 218.204 311.028 226.786 317.356 233.115C323.685 239.443 332.267 242.999 341.217 243H341.217C345.653 242.999 350.046 242.124 354.144 240.425C358.242 238.725 361.965 236.235 365.1 233.097C368.235 229.958 370.722 226.232 372.416 222.132C374.111 218.032 374.982 213.639 374.978 209.202C374.974 205.05 374.972 202.176 374.972 202C374.97 190.89 377.86 179.971 383.357 170.316C388.855 160.662 396.771 152.605 406.327 146.938C415.883 141.271 426.75 138.189 437.858 137.996C448.966 137.803 459.934 140.504 469.681 145.835C479.429 151.166 487.621 158.942 493.451 168.399C499.282 177.856 502.55 188.668 502.935 199.771C503.319 210.875 500.807 221.887 495.644 231.725C490.482 241.563 482.848 249.887 473.493 255.879L473.504 255.894C473.504 255.894 425.476 286.813 410.833 329.229L410.846 329.232C408.271 337.921 406.966 346.937 406.972 356C406.972 359.725 407.191 392.321 407.615 418.778C407.763 427.906 411.494 436.611 418.002 443.013C424.511 449.415 433.275 453.002 442.405 453H442.405C446.992 453 451.535 452.093 455.77 450.33C460.005 448.568 463.851 445.986 467.084 442.732C470.318 439.478 472.876 435.617 474.612 431.371C476.348 427.124 477.227 422.577 477.199 417.989C477.052 393.76 476.972 365.548 476.972 363.5C476.972 337.455 502.098 311.505 522.736 294.583C546.502 275.096 563.604 248.54 570.473 218.584C571.993 212.416 572.831 206.1 572.972 199.75C572.972 182.236 569.507 164.896 562.775 148.727C556.044 132.559 546.18 117.882 533.751 105.543C521.322 93.2039 506.575 83.446 490.358 76.8316C474.142 70.2171 456.777 66.8769 439.263 67.0035V67.0035Z" fill="#FFD600"/>
<path id="Vector_31" d="M585.81 581.129H573.551L567.718 533.841H585.813L585.81 581.129Z" fill="#A0616A"/>
<path id="Vector_32" d="M564.793 577.626H588.437V592.513H549.906C549.906 590.558 550.291 588.622 551.039 586.816C551.788 585.009 552.884 583.368 554.266 581.986C555.649 580.604 557.29 579.507 559.096 578.759C560.902 578.011 562.838 577.626 564.793 577.626Z" fill="#2F2E41"/>
<path id="Vector_33" d="M680.81 581.129H668.551L662.718 533.841H680.813L680.81 581.129Z" fill="#A0616A"/>
<path id="Vector_34" d="M659.793 577.626H683.437V592.513H644.906C644.906 590.558 645.291 588.622 646.039 586.816C646.788 585.009 647.884 583.368 649.266 581.986C650.649 580.604 652.29 579.507 654.096 578.759C655.902 578.011 657.838 577.626 659.793 577.626V577.626Z" fill="#2F2E41"/>
<path id="Vector_35" d="M636.688 272.171C650.253 272.171 661.249 261.175 661.249 247.61C661.249 234.045 650.253 223.049 636.688 223.049C623.123 223.049 612.127 234.045 612.127 247.61C612.127 261.175 623.123 272.171 636.688 272.171Z" fill="#A0616A"/>
<path id="Vector_36" d="M651.327 351.406L662.317 326.156C664.986 320.233 665.751 313.627 664.506 307.25C663.261 300.874 660.068 295.041 655.367 290.556C654.402 289.601 653.376 288.71 652.297 287.886C646.874 283.644 640.192 281.332 633.307 281.316C628.678 281.334 624.107 282.35 619.907 284.296C619.547 284.456 619.197 284.626 618.837 284.796C618.147 285.126 617.467 285.486 616.807 285.856C612.502 288.328 608.838 291.777 606.111 295.925C603.384 300.073 601.67 304.804 601.107 309.736L596.257 350.376C595.037 353.566 551.517 468.766 566.737 556.716C566.899 557.655 567.357 558.518 568.044 559.178C568.732 559.839 569.612 560.262 570.557 560.386L585.987 562.486C587.114 562.64 588.257 562.362 589.187 561.707C590.116 561.052 590.763 560.069 590.997 558.956L616.887 435.546C617.048 434.779 617.462 434.089 618.062 433.585C618.662 433.081 619.414 432.792 620.197 432.766C620.98 432.739 621.749 432.976 622.382 433.439C623.015 433.901 623.474 434.562 623.687 435.316L660.267 565.096C660.528 566.039 661.09 566.87 661.869 567.463C662.647 568.055 663.599 568.376 664.577 568.376C664.869 568.374 665.16 568.347 665.447 568.296L684.297 564.666C685.393 564.461 686.372 563.854 687.044 562.964C687.716 562.075 688.031 560.966 687.927 559.856C685.157 528.966 670.437 374.236 651.327 351.406Z" fill="#2F2E41"/>
<path id="Vector_37" d="M541.237 268.05C541.066 269.51 541.218 270.99 541.681 272.385C542.145 273.78 542.908 275.057 543.918 276.125C544.928 277.193 546.16 278.027 547.528 278.567C548.895 279.108 550.364 279.342 551.831 279.253L565.56 312.246L575.945 296.851L561.316 267.881C561.003 265.426 559.801 263.171 557.937 261.542C556.073 259.914 553.676 259.026 551.201 259.047C548.726 259.068 546.345 259.996 544.508 261.655C542.672 263.314 541.508 265.59 541.237 268.05L541.237 268.05Z" fill="#A0616A"/>
<path id="Vector_38" d="M635.325 384.626C636.785 384.452 638.189 383.959 639.438 383.184C640.686 382.408 641.75 381.368 642.553 380.137C643.357 378.906 643.88 377.514 644.087 376.058C644.294 374.603 644.18 373.12 643.752 371.713L672.637 350.675L655.247 344.162L630.483 365.139C628.168 366.015 626.255 367.71 625.106 369.902C623.957 372.094 623.652 374.632 624.249 377.034C624.845 379.436 626.303 381.535 628.344 382.935C630.386 384.334 632.87 384.936 635.325 384.626V384.626Z" fill="#A0616A"/>
<path id="Vector_39" d="M588.237 334.241C587.13 334.24 586.025 334.131 584.939 333.916C582.311 333.416 579.847 332.277 577.764 330.6C575.68 328.923 574.041 326.759 572.991 324.3L553.757 300.846C553.35 300.351 553.054 299.774 552.889 299.154C552.723 298.535 552.692 297.887 552.797 297.254C552.903 296.622 553.142 296.019 553.499 295.486C553.856 294.954 554.323 294.503 554.868 294.166L568.552 285.695C569.057 285.382 569.62 285.173 570.206 285.078C570.793 284.984 571.393 285.007 571.97 285.145C572.548 285.284 573.093 285.535 573.573 285.885C574.053 286.236 574.459 286.677 574.768 287.185L588.324 309.519L614.285 290.333C616.352 289.249 618.74 288.945 621.013 289.476C623.286 290.008 625.291 291.339 626.664 293.227C628.036 295.115 628.683 297.434 628.487 299.76C628.291 302.085 627.264 304.263 625.595 305.894L599.683 329.531C596.639 332.549 592.524 334.242 588.237 334.241Z" fill="#2F2E41"/>
<path id="Vector_40" d="M658.388 369.514C658.353 369.514 658.317 369.514 658.282 369.513C657.651 369.497 657.03 369.349 656.46 369.079C655.89 368.808 655.383 368.421 654.971 367.942L642.805 353.749C642.391 353.265 642.084 352.7 641.904 352.089C641.725 351.478 641.677 350.836 641.764 350.205C641.851 349.575 642.071 348.97 642.409 348.43C642.747 347.891 643.196 347.429 643.726 347.076L666.507 331.888L645.869 307.076C644.668 305.075 644.228 302.708 644.628 300.408C645.028 298.109 646.242 296.03 648.049 294.552C649.855 293.074 652.133 292.295 654.466 292.358C656.799 292.421 659.032 293.321 660.756 294.893L685.839 319.406C687.814 321.21 689.321 323.465 690.231 325.979C691.142 328.493 691.429 331.191 691.067 333.84C690.706 336.49 689.707 339.012 688.156 341.19C686.605 343.368 684.549 345.138 682.164 346.346L661.663 368.1C661.242 368.546 660.734 368.902 660.171 369.145C659.608 369.388 659.001 369.513 658.388 369.514Z" fill="#2F2E41"/>
<path id="Vector_41" d="M664.899 228.603C670.32 228.603 674.715 224.208 674.715 218.786C674.715 213.365 670.32 208.969 664.899 208.969C659.477 208.969 655.082 213.365 655.082 218.786C655.082 224.208 659.477 228.603 664.899 228.603Z" fill="#2F2E41"/>
<path id="Vector_42" d="M631.247 207.996C624.351 207.996 617.738 210.735 612.862 215.611C607.986 220.487 605.247 227.1 605.247 233.996V244.996H618.776L625.247 233.996L627.188 244.996H668.247L657.247 233.996C657.247 227.1 654.508 220.487 649.632 215.611C644.756 210.735 638.143 207.996 631.247 207.996V207.996Z" fill="#2F2E41"/>
<path id="Vector_43" d="M669.944 212.062C671.03 208.668 673.277 205.764 676.292 203.863C679.306 201.962 682.894 201.184 686.425 201.666C692.681 202.712 697.627 207.741 700.575 213.358C703.522 218.974 704.883 225.26 706.864 231.285C708.845 237.311 711.655 243.369 716.657 247.269C721.659 251.17 729.334 252.228 734.247 248.216C733.685 252.397 731.824 256.296 728.925 259.362C726.026 262.428 722.237 264.504 718.093 265.298C713.95 266.092 709.661 265.563 705.835 263.786C702.008 262.01 698.837 259.075 696.77 255.397C694.178 250.785 693.508 245.38 692.74 240.146C691.971 234.912 690.972 229.496 687.878 225.205C684.783 220.915 678.99 218.112 674.074 220.067L669.944 212.062Z" fill="#2F2E41"/>
<path id="Vector_44" d="M350.744 227.038C341.795 227.037 333.212 223.482 326.884 217.153C320.556 210.825 317.001 202.242 317 193.292C317 187.189 317.004 182.522 317.013 181.858C317.298 160.951 322.563 140.414 332.372 121.949C316.256 144.012 307.394 170.538 307.013 197.858C307.004 198.522 307 203.189 307 209.292C307.001 218.242 310.556 226.825 316.884 233.153C323.212 239.482 331.795 243.037 340.744 243.038V243.038C348.098 243.036 355.25 240.632 361.114 236.194C366.978 231.756 371.233 225.525 373.232 218.448C367.053 223.989 359.043 227.048 350.744 227.038V227.038Z" fill="#3F3D56"/>
<path id="Vector_45" d="M434.056 581.78C427.522 578.934 421.738 574.608 417.161 569.144C412.585 563.68 409.341 557.227 407.686 550.294C406.03 543.362 406.009 536.139 407.623 529.197C409.237 522.255 412.442 515.782 416.986 510.291C411.718 514.138 407.328 519.061 404.108 524.733C400.888 530.406 398.911 536.698 398.309 543.193C397.707 549.688 398.493 556.237 400.615 562.405C402.737 568.573 406.147 574.219 410.618 578.969C415.089 583.718 420.519 587.462 426.548 589.953C432.577 592.443 439.066 593.623 445.586 593.414C452.105 593.204 458.506 591.611 464.362 588.739C470.219 585.867 475.397 581.782 479.555 576.755C473.071 581.494 465.458 584.452 457.475 585.334C449.493 586.215 441.418 584.99 434.056 581.78V581.78Z" fill="#3F3D56"/>
</g>
</g>
</g>
</g>
<defs>
<clipPath id="clip0_477_367">
<rect width="844.675" height="595.262" fill="white"/>
</clipPath>
</defs>
</svg>
